<?xml version="1.0" encoding="UTF-8" standalone="no"?>
<svg
   class="svglite"
   width="1100"
   height="864"
   viewBox="0 0 825 648"
   version="1.1"
   id="svg46"
   sodipodi:docname="Myositis_7PCs_sdiag_BHDP_mod.svg"
   inkscape:version="1.3 (0e150ed6c4, 2023-07-21)"
   xmlns:inkscape="http://www.inkscape.org/namespaces/inkscape"
   xmlns:sodipodi="http://sodipodi.sourceforge.net/DTD/sodipodi-0.dtd"
   xmlns="http://www.w3.org/2000/svg"
   xmlns:svg="http://www.w3.org/2000/svg">
  <sodipodi:namedview
     id="namedview46"
     pagecolor="#ffffff"
     bordercolor="#666666"
     borderopacity="1.0"
     inkscape:showpageshadow="2"
     inkscape:pageopacity="0.0"
     inkscape:pagecheckerboard="0"
     inkscape:deskcolor="#d1d1d1"
     inkscape:document-units="px"
     showguides="true"
     inkscape:zoom="0.96180556"
     inkscape:cx="601.99278"
     inkscape:cy="377.93502"
     inkscape:window-width="1920"
     inkscape:window-height="1011"
     inkscape:window-x="0"
     inkscape:window-y="32"
     inkscape:window-maximized="1"
     inkscape:current-layer="svg46" />
  <defs
     id="defs1">
    <style
       type="text/css"
       id="style1"><![CDATA[
    .svglite line, .svglite polyline, .svglite polygon, .svglite path, .svglite rect, .svglite circle {
      fill: none;
      stroke: #000000;
      stroke-linecap: round;
      stroke-linejoin: round;
      stroke-miterlimit: 10.00;
    }
    .svglite text {
      white-space: pre;
    }
  ]]></style>
    <clipPath
       clipPathUnits="userSpaceOnUse"
       id="clipPath46">
      <g
         id="g47">
        <rect
           x="8.2200003"
           y="5.48"
           width="562.29999"
           height="619.91998"
           id="rect46" />
      </g>
    </clipPath>
    <clipPath
       clipPathUnits="userSpaceOnUse"
       id="clipPath47">
      <g
         id="g48">
        <rect
           x="8.2200003"
           y="5.48"
           width="562.29999"
           height="619.91998"
           id="rect47" />
      </g>
    </clipPath>
    <clipPath
       clipPathUnits="userSpaceOnUse"
       id="clipPath48">
      <g
         id="g49">
        <rect
           x="8.2200003"
           y="5.48"
           width="562.29999"
           height="619.91998"
           id="rect48" />
      </g>
    </clipPath>
    <clipPath
       clipPathUnits="userSpaceOnUse"
       id="clipPath49">
      <g
         id="g50">
        <rect
           x="8.2200003"
           y="5.48"
           width="562.29999"
           height="619.91998"
           id="rect49" />
      </g>
    </clipPath>
    <clipPath
       clipPathUnits="userSpaceOnUse"
       id="clipPath50">
      <g
         id="g51">
        <rect
           x="8.2200003"
           y="5.48"
           width="562.29999"
           height="619.91998"
           id="rect50" />
      </g>
    </clipPath>
    <clipPath
       clipPathUnits="userSpaceOnUse"
       id="clipPath51">
      <g
         id="g52">
        <rect
           x="8.2200003"
           y="5.48"
           width="562.29999"
           height="619.91998"
           id="rect51" />
      </g>
    </clipPath>
    <clipPath
       clipPathUnits="userSpaceOnUse"
       id="clipPath52">
      <g
         id="g53">
        <rect
           x="8.2200003"
           y="5.48"
           width="562.29999"
           height="619.91998"
           id="rect52" />
      </g>
    </clipPath>
    <clipPath
       clipPathUnits="userSpaceOnUse"
       id="clipPath53">
      <g
         id="g54">
        <rect
           x="8.2200003"
           y="5.48"
           width="562.29999"
           height="619.91998"
           id="rect53" />
      </g>
    </clipPath>
    <clipPath
       clipPathUnits="userSpaceOnUse"
       id="clipPath54">
      <g
         id="g55">
        <rect
           x="8.2200003"
           y="5.48"
           width="562.29999"
           height="619.91998"
           id="rect54" />
      </g>
    </clipPath>
    <clipPath
       clipPathUnits="userSpaceOnUse"
       id="clipPath55">
      <g
         id="g56">
        <rect
           x="8.2200003"
           y="5.48"
           width="562.29999"
           height="619.91998"
           id="rect55" />
      </g>
    </clipPath>
    <clipPath
       clipPathUnits="userSpaceOnUse"
       id="clipPath56">
      <g
         id="g57">
        <rect
           x="8.2200003"
           y="5.48"
           width="562.29999"
           height="619.91998"
           id="rect56" />
      </g>
    </clipPath>
    <clipPath
       clipPathUnits="userSpaceOnUse"
       id="clipPath57">
      <g
         id="g58">
        <rect
           x="8.2200003"
           y="5.48"
           width="562.29999"
           height="619.91998"
           id="rect57" />
      </g>
    </clipPath>
    <clipPath
       clipPathUnits="userSpaceOnUse"
       id="clipPath58">
      <g
         id="g59">
        <rect
           x="8.2200003"
           y="5.48"
           width="562.29999"
           height="619.91998"
           id="rect58" />
      </g>
    </clipPath>
    <clipPath
       clipPathUnits="userSpaceOnUse"
       id="clipPath59">
      <g
         id="g60">
        <rect
           x="8.2200003"
           y="5.48"
           width="562.29999"
           height="619.91998"
           id="rect59" />
      </g>
    </clipPath>
    <clipPath
       clipPathUnits="userSpaceOnUse"
       id="clipPath60">
      <g
         id="g61">
        <rect
           x="8.2200003"
           y="5.48"
           width="562.29999"
           height="619.91998"
           id="rect60" />
      </g>
    </clipPath>
    <clipPath
       clipPathUnits="userSpaceOnUse"
       id="clipPath61">
      <g
         id="g62">
        <rect
           x="8.2200003"
           y="5.48"
           width="562.29999"
           height="619.91998"
           id="rect61" />
      </g>
    </clipPath>
    <clipPath
       clipPathUnits="userSpaceOnUse"
       id="clipPath62">
      <g
         id="g63">
        <rect
           x="8.2200003"
           y="5.48"
           width="562.29999"
           height="619.91998"
           id="rect62" />
      </g>
    </clipPath>
    <clipPath
       clipPathUnits="userSpaceOnUse"
       id="clipPath63">
      <g
         id="g64">
        <rect
           x="8.2200003"
           y="5.48"
           width="562.29999"
           height="619.91998"
           id="rect63" />
      </g>
    </clipPath>
    <clipPath
       clipPathUnits="userSpaceOnUse"
       id="clipPath64">
      <g
         id="g65">
        <rect
           x="8.2200003"
           y="5.48"
           width="562.29999"
           height="619.91998"
           id="rect64" />
      </g>
    </clipPath>
    <clipPath
       clipPathUnits="userSpaceOnUse"
       id="clipPath65">
      <g
         id="g66">
        <rect
           x="8.2200003"
           y="5.48"
           width="562.29999"
           height="619.91998"
           id="rect65" />
      </g>
    </clipPath>
    <clipPath
       clipPathUnits="userSpaceOnUse"
       id="clipPath66">
      <g
         id="g67">
        <rect
           x="8.2200003"
           y="5.48"
           width="562.29999"
           height="619.91998"
           id="rect66" />
      </g>
    </clipPath>
    <clipPath
       clipPathUnits="userSpaceOnUse"
       id="clipPath67">
      <g
         id="g68">
        <rect
           x="8.2200003"
           y="5.48"
           width="562.29999"
           height="619.91998"
           id="rect67" />
      </g>
    </clipPath>
    <clipPath
       clipPathUnits="userSpaceOnUse"
       id="clipPath68">
      <g
         id="g69">
        <rect
           x="8.2200003"
           y="5.48"
           width="562.29999"
           height="619.91998"
           id="rect68" />
      </g>
    </clipPath>
    <clipPath
       clipPathUnits="userSpaceOnUse"
       id="clipPath69">
      <g
         id="g70">
        <rect
           x="8.2200003"
           y="5.48"
           width="562.29999"
           height="619.91998"
           id="rect69" />
      </g>
    </clipPath>
    <clipPath
       clipPathUnits="userSpaceOnUse"
       id="clipPath70">
      <g
         id="g71">
        <rect
           x="8.2200003"
           y="5.48"
           width="562.29999"
           height="619.91998"
           id="rect70" />
      </g>
    </clipPath>
    <clipPath
       clipPathUnits="userSpaceOnUse"
       id="clipPath71">
      <g
         id="g72">
        <rect
           x="8.2200003"
           y="5.48"
           width="562.29999"
           height="619.91998"
           id="rect71" />
      </g>
    </clipPath>
    <clipPath
       clipPathUnits="userSpaceOnUse"
       id="clipPath72">
      <g
         id="g73">
        <rect
           x="8.2200003"
           y="5.48"
           width="562.29999"
           height="619.91998"
           id="rect72" />
      </g>
    </clipPath>
  </defs>
  <rect
     width="100%"
     height="100%"
     style="fill:#ffffff;stroke:none"
     id="rect1"
     x="0"
     y="0" />
  <rect
     style="fill:#bad4ed;fill-opacity:1;stroke:none;stroke-width:1.25;stroke-linecap:butt;stroke-linejoin:miter;stroke-miterlimit:4;stroke-dasharray:none;stroke-dashoffset:0;stroke-opacity:1"
     id="rect172-5-7-3-6-9"
     width="52.889404"
     height="7.9411263"
     x="557.45593"
     y="588.78503"
     ry="2.9353638" />
  <g
     id="g123"
     transform="translate(4.0182591,56.329017)">
    <rect
       style="fill:#ffffff;fill-opacity:1;stroke:#000000;stroke-width:1.47348;stroke-linecap:butt;stroke-linejoin:miter;stroke-miterlimit:4;stroke-dasharray:none;stroke-dashoffset:0;stroke-opacity:1"
       id="rect171-8-7-0"
       width="45.122147"
       height="30.697433"
       x="583.35846"
       y="526.10864"
       ry="7.9776039" />
    <text
       xml:space="preserve"
       style="font-size:20px;line-height:1.25;font-family:sans-serif;letter-spacing:0px;word-spacing:0px;white-space:pre;stroke-width:0.75"
       x="591.06171"
       y="547.83936"
       id="text131-4-6"><tspan
         sodipodi:role="line"
         style="font-style:normal;font-variant:normal;font-weight:bold;font-stretch:normal;font-size:20px;font-family:'Proxima Nova';-inkscape-font-specification:'Proxima Nova';stroke-width:0.75"
         x="591.06171"
         y="547.83936"
         id="tspan121-5">RA</tspan><tspan
         sodipodi:role="line"
         style="font-style:normal;font-variant:normal;font-weight:bold;font-stretch:normal;font-size:20px;font-family:'Proxima Nova';-inkscape-font-specification:'Proxima Nova';stroke-width:0.75"
         x="591.06171"
         y="573.44403"
         id="tspan4-4" /><tspan
         sodipodi:role="line"
         style="font-style:normal;font-variant:normal;font-weight:normal;font-stretch:normal;font-size:20px;font-family:'Proxima Nova';-inkscape-font-specification:'Proxima Nova';stroke-width:0.75"
         x="591.06171"
         y="598.44403"
         id="tspan162-7-2" /></text>
  </g>
  <rect
     style="fill:#bad4ed;fill-opacity:1;stroke:none;stroke-width:1.25;stroke-linecap:butt;stroke-linejoin:miter;stroke-miterlimit:4;stroke-dasharray:none;stroke-dashoffset:0;stroke-opacity:1"
     id="rect172-5-7-3-6-5"
     width="58.918091"
     height="171.12643"
     x="551.59149"
     y="316.37637"
     ry="3.4392548" />
  <rect
     style="fill:#bad4ed;fill-opacity:1;stroke:none;stroke-width:1.25;stroke-linecap:butt;stroke-linejoin:miter;stroke-miterlimit:4;stroke-dasharray:none;stroke-dashoffset:0;stroke-opacity:1"
     id="rect172-5-7-3-6-5-9"
     width="43.050747"
     height="55.924545"
     x="562.37323"
     y="522.47925"
     ry="3.4392548" />
  <defs
     id="defs2">
    <clipPath
       id="cpMC4wMHw1NzYuMDB8MC4wMHw2NDguMDA=">
      <rect
         x="0"
         y="0"
         width="576"
         height="648"
         id="rect2" />
    </clipPath>
  </defs>
  <g
     clip-path="url(#cpMC4wMHw1NzYuMDB8MC4wMHw2NDguMDA=)"
     id="g2" />
  <defs
     id="defs3" />
  <polygon
     points="151.58,189.24 157.74,189.71 164.19,190.27 170.69,190.93 177.06,191.67 183.2,192.51 189.06,193.45 194.66,194.5 200.04,195.68 205.28,197.01 210.45,198.5 215.65,200.18 220.94,202.06 224.29,203.33 228.74,205.1 233.34,207.02 238.09,209.07 243.02,211.27 248.13,213.61 253.42,216.08 258.88,218.67 264.49,221.38 270.23,224.18 276.09,227.06 282.02,229.99 288,232.95 293.98,235.92 299.94,238.87 305.83,241.77 311.63,244.61 317.31,247.36 322.84,250.01 328.2,252.54 333.39,254.94 338.41,257.2 343.24,259.32 347.91,261.3 352.42,263.13 354.45,263.93 359.84,265.95 365.09,267.75 370.26,269.36 375.45,270.78 380.73,272.05 386.19,273.18 391.89,274.18 397.85,275.08 404.09,275.89 410.53,276.6 417.04,277.22 423.41,277.75 429.37,278.18 434.64,278.52 438.95,278.77 442.13,278.93 444.18,279.02 445.22,279.07 445.54,279.08 445.56,279.08 601.76,279.08 601.76,124.55 445.56,124.55 445.48,124.55 444.92,124.53 443.52,124.47 441.05,124.35 437.42,124.16 432.72,123.88 427.16,123.5 421,123.03 414.55,122.47 408.05,121.81 401.68,121.07 395.54,120.23 389.68,119.29 384.08,118.23 378.69,117.06 373.46,115.73 368.29,114.24 363.09,112.56 357.8,110.68 354.45,109.41 350,107.63 345.4,105.72 340.65,103.67 335.72,101.47 330.61,99.13 325.32,96.66 319.86,94.07 314.25,91.36 308.51,88.56 302.65,85.68 296.72,82.75 290.74,79.79 284.76,76.82 278.8,73.87 272.91,70.97 267.11,68.13 261.43,65.38 255.9,62.73 250.54,60.2 245.35,57.8 240.33,55.54 235.5,53.42 230.83,51.44 226.32,49.6 224.29,48.81 218.9,46.79 213.65,44.99 208.48,43.38 203.29,41.96 198.01,40.69 192.55,39.56 186.85,38.55 180.89,37.65 174.65,36.85 168.21,36.14 161.7,35.52 155.33,34.99 149.37,34.56 144.1,34.22 139.79,33.97 136.61,33.81 134.56,33.71 133.52,33.67 133.2,33.66 133.18,33.66 -23.02,33.66 -23.02,188.18 133.18,188.18 133.26,188.19 133.82,188.21 135.22,188.27 137.69,188.39 141.32,188.58 146.02,188.86 "
     style="fill:#9e0142;fill-opacity:0.5;stroke:none;stroke-width:1.07"
     id="polygon3"
     clip-path="url(#clipPath72)" />
  <polygon
     points="148.87,200.39 154.37,201.8 160.26,203.52 166.32,205.52 172.36,207.81 178.26,210.38 183.94,213.26 189.39,216.44 194.61,219.98 199.63,223.92 204.53,228.31 209.35,233.21 214.19,238.68 219.09,244.79 224.11,251.56 224.29,251.81 227.62,256.56 231.04,261.59 234.54,266.91 238.13,272.52 241.82,278.43 245.61,284.62 249.5,291.09 253.5,297.82 257.59,304.81 261.76,312.04 266.03,319.47 270.36,327.09 274.75,334.85 279.2,342.74 283.67,350.72 288.17,358.74 292.67,366.77 297.16,374.78 301.62,382.72 306.04,390.56 310.41,398.26 314.71,405.79 318.93,413.13 323.07,420.25 327.12,427.12 331.06,433.74 334.91,440.08 338.65,446.14 342.3,451.9 345.85,457.38 349.3,462.56 352.68,467.46 354.45,469.96 359.48,476.76 364.39,482.89 369.22,488.39 374.05,493.31 378.94,497.71 383.96,501.66 389.17,505.22 394.6,508.42 400.28,511.3 406.17,513.88 412.21,516.18 418.27,518.2 424.17,519.92 429.69,521.35 434.59,522.48 438.65,523.32 441.74,523.89 443.83,524.25 445.01,524.43 445.49,524.49 445.56,524.5 445.56,524.5 601.76,524.5 601.76,515.41 445.56,515.41 445.5,515.4 445.04,515.34 443.89,515.17 441.83,514.82 438.77,514.25 434.74,513.42 429.87,512.3 424.37,510.88 418.48,509.17 412.42,507.17 406.38,504.88 400.48,502.3 394.8,499.43 389.35,496.24 384.13,492.7 379.11,488.77 374.21,484.38 369.39,479.48 364.55,474 359.65,467.9 354.63,461.12 354.45,460.88 351.12,456.13 347.7,451.09 344.2,445.77 340.61,440.16 336.92,434.26 333.13,428.07 329.24,421.6 325.24,414.86 321.15,407.87 316.98,400.65 312.71,393.22 308.38,385.6 303.99,377.83 299.54,369.94 295.07,361.97 290.57,353.94 286.07,345.91 281.58,337.91 277.12,329.97 272.7,322.13 268.33,314.43 264.03,306.89 259.81,299.55 255.67,292.44 251.62,285.56 247.68,278.95 243.83,272.61 240.09,266.55 236.44,260.78 232.89,255.31 229.44,250.12 226.06,245.22 224.29,242.72 219.26,235.92 214.35,229.79 209.52,224.3 204.69,219.38 199.8,214.97 194.78,211.02 189.57,207.47 184.14,204.27 178.46,201.39 172.57,198.8 166.53,196.51 160.47,194.49 154.57,192.77 149.05,191.34 144.15,190.21 140.09,189.37 137,188.79 134.91,188.44 133.73,188.26 133.25,188.19 133.18,188.18 133.18,188.18 -23.02,188.18 -23.02,197.27 133.18,197.27 133.24,197.28 133.7,197.35 134.85,197.52 136.91,197.87 139.97,198.44 144,199.27 "
     style="fill:#9e0142;fill-opacity:0.5;stroke:none;stroke-width:1.07"
     id="polygon4"
     clip-path="url(#clipPath71)" />
  <polygon
     points="151.39,371.33 157.51,371.93 163.92,372.66 170.39,373.5 176.75,374.46 182.87,375.54 188.72,376.75 194.31,378.1 199.68,379.62 204.9,381.31 210.05,383.23 215.21,385.38 220.47,387.8 224.29,389.67 228.61,391.91 233.07,394.31 237.68,396.9 242.45,399.65 247.39,402.58 252.5,405.68 257.77,408.93 263.19,412.32 268.75,415.83 274.41,419.44 280.15,423.12 285.95,426.85 291.76,430.6 297.56,434.34 303.31,438.03 308.99,441.66 314.57,445.19 320.01,448.6 325.31,451.88 330.45,455 335.42,457.96 340.22,460.75 344.86,463.36 349.34,465.8 353.69,468.06 354.45,468.45 359.81,471.06 365.04,473.4 370.19,475.48 375.35,477.32 380.61,478.97 386.04,480.43 391.7,481.74 397.63,482.91 403.83,483.95 410.23,484.88 416.71,485.69 423.06,486.38 429.03,486.95 434.32,487.39 438.68,487.72 441.94,487.94 444.05,488.06 445.16,488.12 445.53,488.14 445.56,488.14 601.76,488.14 601.76,315.44 445.56,315.44 445.48,315.44 444.93,315.41 443.55,315.33 441.11,315.18 437.52,314.93 432.87,314.57 427.35,314.09 421.23,313.48 414.82,312.76 408.35,311.92 401.99,310.96 395.87,309.88 390.02,308.67 384.43,307.32 379.06,305.8 373.84,304.1 368.69,302.19 363.52,300.04 358.27,297.62 354.45,295.75 350.13,293.51 345.67,291.1 341.06,288.52 336.29,285.76 331.35,282.83 326.24,279.74 320.97,276.49 315.55,273.1 309.99,269.59 304.33,265.98 298.59,262.29 292.79,258.56 286.98,254.82 281.18,251.08 275.42,247.39 269.75,243.76 264.17,240.23 258.73,236.82 253.43,233.54 248.29,230.42 243.32,227.46 238.52,224.67 233.88,222.06 229.4,219.62 225.05,217.35 224.29,216.97 218.92,214.36 213.7,212.02 208.55,209.94 203.39,208.09 198.13,206.45 192.7,204.99 187.04,203.68 181.11,202.51 174.91,201.46 168.51,200.54 162.03,199.73 155.68,199.04 149.71,198.47 144.42,198.03 140.06,197.7 136.8,197.48 134.69,197.35 133.58,197.29 133.21,197.27 133.18,197.27 -23.02,197.27 -23.02,369.98 133.18,369.98 133.26,369.98 133.81,370.01 135.19,370.09 137.63,370.24 141.22,370.49 145.87,370.85 "
     style="fill:#77aadd;fill-opacity:0.5;stroke:none;stroke-width:1.07"
     id="polygon5"
     clip-path="url(#clipPath70)" />
  <polygon
     points="151.08,426.25 157.11,427.02 163.47,427.95 169.89,429.03 176.21,430.27 182.31,431.65 188.14,433.2 193.71,434.94 199.06,436.88 204.26,439.05 209.37,441.49 214.49,444.24 219.69,447.33 224.29,450.27 228.43,453.06 232.68,456.06 237.08,459.27 241.63,462.69 246.32,466.32 251.18,470.15 256.18,474.16 261.33,478.35 266.6,482.7 271.98,487.17 277.45,491.74 282.98,496.39 288.54,501.08 294.1,505.77 299.64,510.43 305.13,515.03 310.54,519.54 315.85,523.92 321.03,528.16 326.08,532.23 330.98,536.12 335.72,539.8 340.31,543.28 344.75,546.56 349.05,549.62 353.22,552.47 354.45,553.29 359.77,556.68 364.96,559.71 370.07,562.42 375.19,564.82 380.4,566.96 385.78,568.87 391.38,570.58 397.25,572.11 403.39,573.47 409.73,574.68 416.16,575.74 422.48,576.65 428.45,577.41 433.79,578 438.23,578.44 441.6,578.74 443.84,578.92 445.06,579.01 445.51,579.04 445.56,579.04 601.76,579.04 601.76,524.5 445.56,524.5 445.48,524.5 444.94,524.46 443.59,524.36 441.2,524.17 437.68,523.85 433.1,523.39 427.66,522.77 421.63,522 415.27,521.07 408.85,519.99 402.53,518.75 396.43,517.37 390.6,515.81 385.03,514.08 379.68,512.14 374.48,509.97 369.37,507.53 364.25,504.78 359.05,501.69 354.45,498.75 350.31,495.96 346.06,492.96 341.66,489.75 337.11,486.33 332.42,482.7 327.56,478.87 322.56,474.86 317.41,470.67 312.14,466.32 306.76,461.85 301.29,457.28 295.76,452.63 290.2,447.94 284.64,443.25 279.1,438.59 273.61,433.99 268.2,429.48 262.89,425.1 257.71,420.86 252.66,416.79 247.76,412.9 243.02,409.22 238.42,405.73 233.99,402.46 229.69,399.4 225.52,396.55 224.29,395.73 218.97,392.34 213.78,389.31 208.67,386.6 203.55,384.2 198.34,382.06 192.96,380.15 187.36,378.44 181.49,376.91 175.35,375.55 169.01,374.34 162.58,373.28 156.26,372.37 150.29,371.61 144.95,371.02 140.51,370.58 137.14,370.28 134.9,370.1 133.68,370.01 133.23,369.98 133.18,369.98 -23.02,369.98 -23.02,424.52 133.18,424.52 133.26,424.52 133.8,424.56 135.15,424.66 137.54,424.85 141.06,425.17 145.64,425.63 "
     style="fill:#77aadd;fill-opacity:0.5;stroke:none;stroke-width:1.07"
     id="polygon6"
     clip-path="url(#clipPath69)" />
  <polygon
     points="150.99,435.43 157,436.24 163.34,437.22 169.75,438.36 176.06,439.66 182.15,441.12 187.98,442.76 193.54,444.58 198.89,446.62 204.07,448.91 209.18,451.48 214.28,454.37 219.47,457.61 224.29,460.88 228.38,463.8 232.59,466.93 236.93,470.29 241.42,473.86 246.05,477.64 250.84,481.64 255.78,485.83 260.86,490.2 266.06,494.73 271.37,499.4 276.76,504.18 282.22,509.04 287.72,513.94 293.22,518.85 298.7,523.74 304.14,528.57 309.5,533.3 314.77,537.92 319.93,542.39 324.95,546.7 329.83,550.81 334.56,554.72 339.13,558.42 343.56,561.91 347.85,565.17 352.01,568.22 354.45,569.95 359.76,573.53 364.94,576.74 370.04,579.6 375.15,582.14 380.34,584.41 385.71,586.43 391.29,588.23 397.15,589.85 403.26,591.3 409.58,592.58 416,593.7 422.32,594.67 428.29,595.47 433.64,596.1 438.1,596.57 441.49,596.89 443.77,597.09 445.03,597.18 445.5,597.22 445.56,597.22 601.76,597.22 601.76,588.13 445.56,588.13 445.48,588.13 444.95,588.09 443.61,587.98 441.23,587.78 437.73,587.45 433.17,586.96 427.75,586.31 421.74,585.5 415.4,584.52 408.99,583.38 402.68,582.08 396.59,580.62 390.76,578.98 385.2,577.16 379.85,575.12 374.67,572.83 369.56,570.26 364.46,567.37 359.27,564.13 354.45,560.86 350.36,557.94 346.15,554.8 341.81,551.45 337.32,547.88 332.69,544.09 327.9,540.1 322.96,535.91 317.88,531.54 312.68,527.01 307.37,522.34 301.98,517.56 296.52,512.7 291.02,507.8 285.52,502.89 280.04,498 274.6,493.17 269.24,488.43 263.97,483.81 258.81,479.34 253.79,475.04 248.91,470.93 244.18,467.02 239.61,463.32 235.18,459.83 230.89,456.57 226.73,453.52 224.29,451.79 218.98,448.2 213.8,444.99 208.7,442.14 203.59,439.59 198.4,437.33 193.03,435.31 187.45,433.51 181.59,431.89 175.48,430.44 169.16,429.16 162.74,428.03 156.42,427.07 150.45,426.27 145.1,425.63 140.64,425.16 137.24,424.84 134.97,424.65 133.71,424.55 133.24,424.52 133.18,424.52 -23.02,424.52 -23.02,433.61 133.18,433.61 133.26,433.61 133.79,433.65 135.13,433.75 137.51,433.96 141.01,434.29 145.57,434.78 "
     style="fill:#77aadd;fill-opacity:0.5;stroke:none;stroke-width:1.07"
     id="polygon7"
     clip-path="url(#clipPath68)" />
  <polygon
     points="146.29,475.99 151.1,474.57 156.36,472.84 161.89,470.79 167.52,468.45 173.11,465.8 178.56,462.85 183.83,459.6 188.89,456 193.75,452.05 198.44,447.68 203.01,442.86 207.5,437.52 211.97,431.6 216.47,425.04 221.06,417.79 224.29,412.4 227.37,407.04 230.52,401.38 233.74,395.43 237.04,389.17 240.43,382.6 243.9,375.74 247.46,368.57 251.1,361.12 254.83,353.39 258.63,345.41 262.52,337.19 266.47,328.75 270.49,320.12 274.55,311.34 278.66,302.42 282.8,293.42 286.95,284.35 291.12,275.27 295.28,266.2 299.42,257.18 303.53,248.25 307.6,239.44 311.63,230.79 315.59,222.32 319.49,214.06 323.31,206.03 327.05,198.26 330.7,190.77 334.28,183.56 337.76,176.64 341.16,170.03 344.47,163.72 347.71,157.71 350.87,152.01 353.96,146.61 354.45,145.76 359.12,138.04 363.68,131.01 368.16,124.65 372.63,118.92 377.14,113.75 381.74,109.07 386.48,104.84 391.4,101 396.53,97.52 401.86,94.36 407.36,91.5 412.97,88.95 418.59,86.7 424.06,84.75 429.2,83.11 433.82,81.79 437.76,80.77 440.88,80.04 443.14,79.56 444.57,79.28 445.31,79.15 445.55,79.11 445.56,79.11 601.76,79.11 601.76,33.66 445.56,33.66 445.51,33.67 445.14,33.73 444.21,33.9 442.53,34.24 440,34.79 436.62,35.61 432.45,36.72 427.64,38.14 422.38,39.87 416.85,41.92 411.22,44.27 405.63,46.91 400.18,49.86 394.91,53.12 389.85,56.71 384.99,60.66 380.3,65.03 375.73,69.85 371.24,75.19 366.77,81.11 362.27,87.67 357.68,94.92 354.45,100.32 351.37,105.67 348.22,111.33 345,117.28 341.7,123.54 338.31,130.11 334.84,136.98 331.28,144.14 327.64,151.59 323.91,159.32 320.11,167.3 316.22,175.52 312.27,183.96 308.25,192.59 304.19,201.37 300.08,210.29 295.94,219.29 291.79,228.36 287.62,237.44 283.46,246.52 279.32,255.53 275.21,264.46 271.14,273.27 267.11,281.93 263.15,290.4 259.25,298.66 255.43,306.68 251.69,314.45 248.04,321.94 244.46,329.16 240.98,336.07 237.58,342.68 234.27,348.99 231.03,355 227.87,360.7 224.78,366.11 224.29,366.95 219.62,374.68 215.06,381.71 210.58,388.06 206.11,393.79 201.6,398.97 197,403.64 192.26,407.87 187.34,411.71 182.21,415.2 176.88,418.36 171.38,421.21 165.77,423.76 160.15,426.02 154.68,427.96 149.54,429.6 144.92,430.92 140.98,431.94 137.86,432.67 135.6,433.15 134.17,433.43 133.43,433.56 133.19,433.6 133.18,433.61 -23.02,433.61 -23.02,479.05 133.18,479.05 133.23,479.05 133.6,478.98 134.53,478.81 136.21,478.48 138.74,477.92 142.12,477.1 "
     style="fill:#f46d43;fill-opacity:0.5;stroke:none;stroke-width:1.07"
     id="polygon8"
     clip-path="url(#clipPath67)" />
  <polygon
     points="146.29,494.17 151.1,492.75 156.36,491.02 161.89,488.97 167.52,486.63 173.11,483.98 178.56,481.03 183.83,477.78 188.89,474.18 193.75,470.23 198.44,465.86 203.01,461.04 207.5,455.7 211.97,449.78 216.47,443.22 221.06,435.97 224.29,430.58 227.37,425.22 230.52,419.56 233.74,413.61 237.04,407.35 240.43,400.78 243.9,393.92 247.46,386.75 251.1,379.3 254.83,371.57 258.63,363.59 262.52,355.37 266.47,346.93 270.49,338.3 274.55,329.52 278.66,320.6 282.8,311.6 286.95,302.53 291.12,293.45 295.28,284.38 299.42,275.36 303.53,266.43 307.6,257.62 311.63,248.97 315.59,240.5 319.49,232.24 323.31,224.21 327.05,216.44 330.7,208.95 334.28,201.74 337.76,194.82 341.16,188.21 344.47,181.9 347.71,175.89 350.87,170.19 353.96,164.79 354.45,163.94 359.12,156.21 363.68,149.19 368.16,142.83 372.63,137.1 377.14,131.92 381.74,127.25 386.48,123.02 391.4,119.18 396.53,115.69 401.86,112.54 407.36,109.68 412.97,107.13 418.59,104.88 424.06,102.93 429.2,101.29 433.82,99.97 437.76,98.95 440.88,98.22 443.14,97.74 444.57,97.46 445.31,97.33 445.55,97.29 445.56,97.29 601.76,97.29 601.76,79.11 445.56,79.11 445.51,79.11 445.14,79.18 444.21,79.35 442.53,79.68 440,80.24 436.62,81.06 432.45,82.17 427.64,83.59 422.38,85.32 416.85,87.37 411.22,89.71 405.63,92.36 400.18,95.31 394.91,98.56 389.85,102.16 384.99,106.11 380.3,110.48 375.73,115.3 371.24,120.64 366.77,126.56 362.27,133.12 357.68,140.37 354.45,145.76 351.37,151.12 348.22,156.78 345,162.73 341.7,168.99 338.31,175.56 334.84,182.43 331.28,189.59 327.64,197.04 323.91,204.77 320.11,212.75 316.22,220.97 312.27,229.41 308.25,238.04 304.19,246.82 300.08,255.74 295.94,264.74 291.79,273.81 287.62,282.89 283.46,291.96 279.32,300.98 275.21,309.91 271.14,318.72 267.11,327.38 263.15,335.85 259.25,344.1 255.43,352.13 251.69,359.9 248.04,367.39 244.46,374.6 240.98,381.52 237.58,388.13 234.27,394.44 231.03,400.45 227.87,406.15 224.78,411.55 224.29,412.4 219.62,420.13 215.06,427.15 210.58,433.51 206.11,439.24 201.6,444.42 197,449.09 192.26,453.32 187.34,457.16 182.21,460.65 176.88,463.8 171.38,466.66 165.77,469.21 160.15,471.46 154.68,473.41 149.54,475.05 144.92,476.37 140.98,477.39 137.86,478.12 135.6,478.6 134.17,478.88 133.43,479.01 133.19,479.05 133.18,479.05 -23.02,479.05 -23.02,497.23 133.18,497.23 133.23,497.23 133.6,497.16 134.53,496.99 136.21,496.66 138.74,496.1 142.12,495.28 "
     style="fill:#f46d43;fill-opacity:0.5;stroke:none;stroke-width:1.07"
     id="polygon9"
     clip-path="url(#clipPath66)" />
  <polygon
     points="150.37,531.27 156.24,530.23 162.45,528.97 168.77,527.5 175.01,525.83 181.05,523.95 186.83,521.85 192.37,519.51 197.67,516.9 202.81,513.97 207.85,510.7 212.86,507.02 217.94,502.9 223.14,498.3 224.29,497.23 228.1,493.61 232.01,489.73 236.04,485.61 240.2,481.23 244.48,476.6 248.89,471.73 253.44,466.62 258.11,461.3 262.9,455.77 267.79,450.07 272.77,444.22 277.82,438.25 282.91,432.2 288.04,426.1 293.18,419.99 298.29,413.91 303.37,407.89 308.39,401.97 313.32,396.19 318.17,390.57 322.9,385.14 327.51,379.91 331.99,374.92 336.35,370.16 340.57,365.66 344.66,361.4 348.63,357.4 352.49,353.64 354.45,351.8 359.68,347.09 364.78,342.87 369.8,339.1 374.83,335.74 379.94,332.75 385.2,330.07 390.68,327.67 396.41,325.52 402.4,323.59 408.6,321.88 414.91,320.37 421.17,319.06 427.14,317.97 432.55,317.09 437.16,316.43 440.76,315.96 443.28,315.67 444.77,315.51 445.43,315.45 445.56,315.44 445.56,315.44 601.76,315.44 601.76,279.08 445.56,279.08 445.49,279.09 444.97,279.14 443.69,279.27 441.4,279.53 438.03,279.95 433.63,280.57 428.37,281.4 422.5,282.45 416.29,283.71 409.97,285.17 403.73,286.84 397.69,288.72 391.91,290.82 386.37,293.17 381.07,295.78 375.93,298.7 370.89,301.98 365.88,305.65 360.8,309.77 355.6,314.37 354.45,315.44 350.64,319.07 346.73,322.94 342.7,327.06 338.54,331.44 334.26,336.07 329.85,340.94 325.3,346.05 320.63,351.38 315.84,356.9 310.95,362.61 305.97,368.46 300.92,374.43 295.83,380.48 290.7,386.58 285.56,392.69 280.45,398.77 275.37,404.78 270.35,410.7 265.42,416.48 260.57,422.1 255.84,427.54 251.23,432.76 246.75,437.75 242.39,442.51 238.17,447.02 234.08,451.27 230.11,455.28 226.25,459.03 224.29,460.88 219.06,465.58 213.96,469.8 208.94,473.58 203.91,476.93 198.8,479.93 193.54,482.6 188.06,485 182.33,487.15 176.34,489.08 170.14,490.8 163.83,492.31 157.57,493.61 151.6,494.7 146.19,495.58 141.58,496.24 137.98,496.71 135.46,497 133.97,497.16 133.31,497.22 133.18,497.23 133.18,497.23 -23.02,497.23 -23.02,533.59 133.18,533.59 133.25,533.59 133.76,533.54 135.05,533.41 137.34,533.15 140.71,532.72 145.11,532.1 "
     style="fill:#abdda4;fill-opacity:0.5;stroke:none;stroke-width:1.07"
     id="polygon10"
     clip-path="url(#clipPath65)" />
  <polygon
     points="145.81,557.67 150.48,556.18 155.62,554.36 161.04,552.21 166.58,549.74 172.09,546.96 177.5,543.85 182.72,540.42 187.75,536.65 192.58,532.49 197.24,527.92 201.77,522.87 206.21,517.3 210.61,511.13 215.03,504.3 219.51,496.76 224.11,488.48 224.29,488.14 227.26,482.51 230.3,476.57 233.4,470.33 236.58,463.78 239.83,456.92 243.16,449.75 246.57,442.28 250.07,434.52 253.64,426.47 257.29,418.15 261.01,409.59 264.8,400.79 268.65,391.8 272.55,382.62 276.49,373.31 280.47,363.87 284.47,354.36 288.49,344.81 292.51,335.24 296.52,325.71 300.51,316.24 304.47,306.87 308.39,297.62 312.26,288.55 316.07,279.66 319.83,270.99 323.51,262.56 327.11,254.4 330.64,246.5 334.09,238.9 337.46,231.6 340.75,224.61 343.95,217.92 347.09,211.54 350.15,205.47 353.15,199.71 354.45,197.27 359.05,188.96 363.54,181.4 367.96,174.54 372.36,168.35 376.8,162.75 381.32,157.69 385.97,153.1 390.79,148.93 395.81,145.14 401.03,141.69 406.43,138.58 411.95,135.78 417.48,133.3 422.91,131.14 428.06,129.3 432.76,127.8 436.82,126.63 440.11,125.76 442.58,125.18 444.22,124.82 445.14,124.63 445.51,124.57 445.56,124.55 445.56,124.55 601.76,124.55 601.76,97.29 445.56,97.29 445.51,97.29 445.16,97.36 444.27,97.54 442.66,97.89 440.23,98.47 436.96,99.32 432.93,100.48 428.26,101.97 423.12,103.79 417.7,105.94 412.16,108.41 406.64,111.19 401.24,114.3 396.02,117.73 390.99,121.5 386.15,125.66 381.5,130.23 376.97,135.28 372.53,140.85 368.13,147.02 363.71,153.85 359.23,161.38 354.63,169.66 354.45,170 351.48,175.64 348.44,181.57 345.34,187.82 342.16,194.37 338.91,201.23 335.58,208.39 332.17,215.86 328.67,223.63 325.1,231.68 321.45,239.99 317.73,248.56 313.94,257.35 310.09,266.35 306.19,275.52 302.25,284.84 298.27,294.27 294.27,303.79 290.25,313.34 286.23,322.9 282.22,332.44 278.23,341.91 274.27,351.28 270.35,360.52 266.48,369.6 262.67,378.49 258.91,387.16 255.23,395.58 251.63,403.75 248.1,411.64 244.65,419.24 241.28,426.55 237.99,433.54 234.78,440.23 231.65,446.6 228.59,452.67 225.59,458.44 224.29,460.88 219.69,469.18 215.2,476.75 210.78,483.61 206.38,489.8 201.94,495.4 197.42,500.46 192.77,505.05 187.95,509.22 182.93,513.01 177.71,516.45 172.31,519.57 166.79,522.37 161.26,524.85 155.83,527.01 150.68,528.85 145.98,530.35 141.92,531.52 138.63,532.38 136.16,532.97 134.52,533.33 133.6,533.52 133.23,533.58 133.18,533.59 133.18,533.59 -23.02,533.59 -23.02,560.86 133.18,560.86 133.23,560.85 133.58,560.79 134.47,560.61 136.08,560.26 138.51,559.68 141.78,558.83 "
     style="fill:#5e4fa2;fill-opacity:0.5;stroke:none;stroke-width:1.07"
     id="polygon11"
     clip-path="url(#clipPath64)" />
  <polygon
     points="151.86,570.17 158.07,570.26 164.57,570.38 171.11,570.51 177.51,570.66 183.67,570.83 189.55,571.02 195.17,571.24 200.57,571.48 205.83,571.75 211.03,572.05 216.27,572.39 221.61,572.78 224.29,572.98 228.96,573.35 233.79,573.76 238.79,574.19 243.99,574.66 249.39,575.15 254.97,575.68 260.75,576.23 266.68,576.8 272.75,577.4 278.93,578.01 285.17,578.63 291.44,579.25 297.7,579.87 303.91,580.48 310.02,581.08 316,581.66 321.83,582.22 327.48,582.76 332.94,583.26 338.21,583.74 343.28,584.18 348.17,584.6 352.89,584.98 354.45,585.1 359.87,585.51 365.16,585.87 370.36,586.19 375.59,586.48 380.91,586.73 386.41,586.96 392.15,587.16 398.18,587.34 404.47,587.5 410.95,587.64 417.5,587.77 423.89,587.87 429.85,587.96 435.08,588.02 439.31,588.07 442.4,588.1 444.34,588.12 445.29,588.13 445.55,588.13 445.56,588.13 601.76,588.13 601.76,579.04 445.56,579.04 445.48,579.04 444.91,579.04 443.49,579.02 440.97,579 437.29,578.96 432.52,578.9 426.88,578.83 420.67,578.73 414.17,578.62 407.63,578.48 401.23,578.33 395.07,578.16 389.19,577.97 383.57,577.76 378.17,577.52 372.91,577.25 367.71,576.94 362.47,576.6 357.13,576.22 354.45,576.01 349.78,575.64 344.95,575.24 339.95,574.8 334.75,574.34 329.35,573.84 323.77,573.32 317.99,572.76 312.06,572.19 305.99,571.6 299.81,570.99 293.57,570.37 287.3,569.75 281.04,569.13 274.83,568.51 268.72,567.91 262.74,567.33 256.91,566.77 251.26,566.24 245.8,565.73 240.53,565.26 235.46,564.81 230.57,564.4 225.85,564.01 224.29,563.89 218.87,563.49 213.58,563.12 208.38,562.8 203.15,562.51 197.83,562.26 192.33,562.03 186.59,561.83 180.56,561.65 174.27,561.49 167.79,561.35 161.24,561.23 154.85,561.12 148.89,561.04 143.66,560.97 139.43,560.92 136.34,560.89 134.4,560.87 133.45,560.86 133.19,560.86 133.18,560.86 -23.02,560.86 -23.02,569.95 133.18,569.95 133.26,569.95 133.83,569.96 135.25,569.97 137.77,569.99 141.45,570.03 146.22,570.09 "
     style="fill:#000000;fill-opacity:0.5;stroke:none;stroke-width:1.07"
     id="polygon12"
     clip-path="url(#clipPath63)" />
  <polygon
     points="151.64,596.27 157.8,595.85 164.26,595.34 170.77,594.74 177.15,594.07 183.29,593.31 189.16,592.46 194.76,591.52 200.15,590.45 205.39,589.25 210.57,587.91 215.77,586.39 221.07,584.69 224.29,583.59 228.78,581.98 233.42,580.24 238.22,578.37 243.2,576.37 248.36,574.25 253.7,572 259.21,569.64 264.88,567.17 270.69,564.62 276.6,562.01 282.59,559.34 288.62,556.65 294.65,553.96 300.65,551.29 306.59,548.66 312.42,546.09 318.13,543.6 323.68,541.22 329.07,538.94 334.27,536.78 339.3,534.75 344.14,532.85 348.82,531.08 353.34,529.44 354.45,529.05 359.85,527.23 365.1,525.6 370.28,524.16 375.48,522.88 380.77,521.74 386.23,520.72 391.94,519.81 397.92,519 404.16,518.28 410.61,517.64 417.13,517.08 423.5,516.61 429.46,516.22 434.72,515.91 439.02,515.69 442.18,515.55 444.21,515.46 445.23,515.42 445.55,515.41 445.56,515.41 601.76,515.41 601.76,488.14 445.56,488.14 445.48,488.15 444.92,488.17 443.52,488.22 441.03,488.33 437.4,488.5 432.68,488.76 427.1,489.1 420.94,489.52 414.48,490.03 407.97,490.62 401.59,491.29 395.45,492.05 389.58,492.9 383.98,493.85 378.59,494.91 373.35,496.11 368.17,497.46 362.97,498.98 357.67,500.68 354.45,501.78 349.96,503.39 345.32,505.13 340.52,506.99 335.54,508.99 330.38,511.12 325.04,513.37 319.53,515.73 313.86,518.19 308.05,520.74 302.14,523.36 296.15,526.02 290.12,528.71 284.09,531.4 278.09,534.08 272.15,536.71 266.32,539.28 260.61,541.76 255.06,544.15 249.67,546.43 244.47,548.59 239.44,550.62 234.6,552.52 229.92,554.29 225.4,555.93 224.29,556.32 218.89,558.14 213.64,559.76 208.46,561.21 203.26,562.49 197.97,563.63 192.51,564.65 186.8,565.55 180.82,566.36 174.58,567.09 168.13,567.73 161.61,568.28 155.24,568.76 149.28,569.15 144.02,569.45 139.72,569.67 136.56,569.82 134.53,569.9 133.51,569.94 133.19,569.95 133.18,569.95 -23.02,569.95 -23.02,597.22 133.18,597.22 133.26,597.22 133.82,597.2 135.22,597.14 137.7,597.04 141.34,596.86 146.06,596.61 "
     style="fill:#d53e4f;fill-opacity:0.5;stroke:none;stroke-width:1.07"
     id="polygon13"
     clip-path="url(#clipPath62)" />
  <polygon
     points="8.22,569.95 101.94,569.95 101.94,597.22 8.22,597.22 "
     style="fill:#ffffff;stroke-width:1.07;stroke-linecap:butt"
     id="polygon14"
     clip-path="url(#clipPath61)" />
  <polygon
     points="8.22,560.86 101.94,560.86 101.94,569.95 8.22,569.95 "
     style="fill:#ffffff;stroke-width:1.07;stroke-linecap:butt"
     id="polygon15"
     clip-path="url(#clipPath60)" />
  <polygon
     points="8.22,533.59 101.94,533.59 101.94,560.86 8.22,560.86 "
     style="fill:#ffffff;stroke-width:1.07;stroke-linecap:butt"
     id="polygon16"
     clip-path="url(#clipPath59)" />
  <polygon
     points="8.22,497.23 101.94,497.23 101.94,533.59 8.22,533.59 "
     style="fill:#ffffff;stroke-width:1.07;stroke-linecap:butt"
     id="polygon17"
     clip-path="url(#clipPath58)" />
  <polygon
     points="8.22,433.61 101.94,433.61 101.94,497.23 8.22,497.23 "
     style="fill:#ffffff;stroke-width:1.07;stroke-linecap:butt"
     id="polygon18"
     clip-path="url(#clipPath57)" />
  <polygon
     points="8.22,197.27 101.94,197.27 101.94,433.61 8.22,433.61 "
     style="fill:#e7f2fe;stroke-width:1.07;stroke-linecap:butt;fill-opacity:1"
     id="polygon19"
     clip-path="url(#clipPath56)" />
  <polygon
     points="8.22,33.66 101.94,33.66 101.94,197.27 8.22,197.27 "
     style="fill:#ffffff;stroke-width:1.07;stroke-linecap:butt"
     id="polygon20"
     clip-path="url(#clipPath55)" />
  <polygon
     points="476.8,588.13 570.52,588.13 570.52,597.22 476.8,597.22 "
     style="fill:#ffffff;stroke-width:1.07;stroke-linecap:butt"
     id="polygon21"
     clip-path="url(#clipPath54)" />
  <polygon
     points="476.8,579.04 570.52,579.04 570.52,588.13 476.8,588.13 "
     style="fill:#ffffff;stroke-width:1.07;stroke-linecap:butt"
     id="polygon22"
     clip-path="url(#clipPath53)" />
  <polygon
     points="476.8,515.41 570.52,515.41 570.52,579.04 476.8,579.04 "
     style="fill:#ffffff;stroke-width:1.07;stroke-linecap:butt"
     id="polygon23"
     clip-path="url(#clipPath52)" />
  <polygon
     points="476.8,488.14 570.52,488.14 570.52,515.41 476.8,515.41 "
     style="fill:#ffffff;stroke-width:1.07;stroke-linecap:butt"
     id="polygon24"
     clip-path="url(#clipPath51)" />
  <polygon
     points="476.8,315.44 570.52,315.44 570.52,488.14 476.8,488.14 "
     style="fill:#e7f2fe;stroke-width:1.07;stroke-linecap:butt;fill-opacity:1"
     id="polygon25"
     clip-path="url(#clipPath50)" />
  <polygon
     points="476.8,279.08 570.52,279.08 570.52,315.44 476.8,315.44 "
     style="fill:#ffffff;stroke-width:1.07;stroke-linecap:butt"
     id="polygon26"
     clip-path="url(#clipPath49)" />
  <polygon
     points="476.8,124.55 570.52,124.55 570.52,279.08 476.8,279.08 "
     style="fill:#ffffff;stroke-width:1.07;stroke-linecap:butt"
     id="polygon27"
     clip-path="url(#clipPath48)" />
  <polygon
     points="476.8,79.11 570.52,79.11 570.52,124.55 476.8,124.55 "
     style="fill:#ffffff;stroke-width:1.07;stroke-linecap:butt"
     id="polygon28"
     clip-path="url(#clipPath47)" />
  <polygon
     points="476.8,33.66 570.52,33.66 570.52,79.11 476.8,79.11 "
     style="fill:#ffffff;stroke-width:1.07;stroke-linecap:butt"
     id="polygon29"
     clip-path="url(#clipPath46)" />
  <text
     x="55.080002"
     y="587.60999"
     text-anchor="middle"
     style="font-size:11.04px;font-family:'Liberation Sans'"
     lengthAdjust="spacingAndGlyphs"
     id="text29">7</text>
  <text
     x="55.080002"
     y="551.25"
     text-anchor="middle"
     style="font-size:11.04px;font-family:'Liberation Sans'"
     lengthAdjust="spacingAndGlyphs"
     id="text31">5</text>
  <text
     x="55.080002"
     y="519.42999"
     text-anchor="middle"
     style="font-size:11.04px;font-family:'Liberation Sans'"
     lengthAdjust="spacingAndGlyphs"
     id="text32">4</text>
  <text
     x="55.080002"
     y="469.44"
     text-anchor="middle"
     style="font-size:11.04px;font-family:'Liberation Sans'"
     lengthAdjust="spacingAndGlyphs"
     id="text33">3</text>
  <text
     x="55.080002"
     y="319.45999"
     text-anchor="middle"
     style="font-size:11.04px;font-family:'Liberation Sans'"
     lengthAdjust="spacingAndGlyphs"
     id="text34">2</text>
  <text
     x="55.080002"
     y="119.49"
     text-anchor="middle"
     style="font-size:11.04px;font-family:'Liberation Sans'"
     lengthAdjust="spacingAndGlyphs"
     id="text35">1</text>
  <text
     x="523.65997"
     y="551.25"
     text-anchor="middle"
     style="font-size:11.04px;font-family:'Liberation Sans'"
     lengthAdjust="spacingAndGlyphs"
     id="text38">7</text>
  <text
     x="523.65997"
     y="505.79999"
     text-anchor="middle"
     style="font-size:11.04px;font-family:'Liberation Sans'"
     lengthAdjust="spacingAndGlyphs"
     id="text39">6</text>
  <text
     x="523.65997"
     y="405.81"
     text-anchor="middle"
     style="font-size:11.04px;font-family:'Liberation Sans'"
     lengthAdjust="spacingAndGlyphs"
     id="text40">5</text>
  <text
     x="523.65997"
     y="301.28"
     text-anchor="middle"
     style="font-size:11.04px;font-family:'Liberation Sans'"
     lengthAdjust="spacingAndGlyphs"
     id="text41">4</text>
  <text
     x="523.65997"
     y="205.84"
     text-anchor="middle"
     style="font-size:11.04px;font-family:'Liberation Sans'"
     lengthAdjust="spacingAndGlyphs"
     id="text42">3</text>
  <text
     x="523.65997"
     y="105.85"
     text-anchor="middle"
     style="font-size:11.04px;font-family:'Liberation Sans'"
     lengthAdjust="spacingAndGlyphs"
     id="text43">2</text>
  <text
     x="523.65997"
     y="60.400002"
     text-anchor="middle"
     style="font-size:11.04px;font-family:'Liberation Sans'"
     lengthAdjust="spacingAndGlyphs"
     id="text44">1</text>
  <text
     xml:space="preserve"
     style="font-size:24px;line-height:1.25;font-family:sans-serif;letter-spacing:0px;word-spacing:0px;white-space:pre;stroke-width:0.75"
     x="11.691375"
     y="632.77252"
     id="text75"><tspan
       sodipodi:role="line"
       id="tspan75"
       style="font-style:normal;font-variant:normal;font-weight:normal;font-stretch:normal;font-size:24px;font-family:'Proxima Nova';-inkscape-font-specification:'Proxima Nova';stroke-width:0.75"
       x="11.691375"
       y="632.77252">DPMUnc</tspan></text>
  <text
     xml:space="preserve"
     style="font-size:24px;line-height:1.25;font-family:sans-serif;letter-spacing:0px;word-spacing:0px;white-space:pre;stroke-width:0.75"
     x="404.00018"
     y="627.03363"
     id="text76"><tspan
       sodipodi:role="line"
       id="tspan76"
       style="font-size:24px;stroke-width:0.75"
       x="404.00018"
       y="627.03363">Bhattacharyya</tspan></text>
  <g
     id="g76"
     transform="translate(-60.687287,-38.73917)">
    <rect
       style="font-variation-settings:normal;vector-effect:none;fill:#ffffff;fill-opacity:1;stroke:#000000;stroke-width:0.75;stroke-linecap:butt;stroke-linejoin:miter;stroke-miterlimit:4;stroke-dasharray:none;stroke-dashoffset:0;stroke-opacity:1;-inkscape-stroke:none"
       id="rect121-0-15-6-56"
       width="17.772242"
       height="11.393555"
       x="107.14867"
       y="598.8031"
       ry="3.051398" />
    <text
       x="115.99706"
       y="608.30029"
       text-anchor="middle"
       style="font-size:11.04px;font-family:'Liberation Sans'"
       lengthAdjust="spacingAndGlyphs"
       id="text30">6</text>
  </g>
  <g
     id="g74"
     transform="translate(-55.699631,-0.83036413)">
    <rect
       style="font-variation-settings:normal;vector-effect:none;fill:#ffffff;fill-opacity:1;stroke:#000000;stroke-width:0.75;stroke-linecap:butt;stroke-linejoin:miter;stroke-miterlimit:4;stroke-dasharray:none;stroke-dashoffset:0;stroke-opacity:1;-inkscape-stroke:none"
       id="rect121-0-15-6"
       width="17.772242"
       height="11.393555"
       x="578.30585"
       y="587.6095"
       ry="3.051398" />
    <text
       x="587.19464"
       y="597.78284"
       text-anchor="middle"
       style="font-size:11.04px;font-family:'Liberation Sans'"
       lengthAdjust="spacingAndGlyphs"
       id="text36">9</text>
  </g>
  <g
     id="g75"
     transform="translate(-75.319764,14.736111)">
    <rect
       style="font-variation-settings:normal;vector-effect:none;fill:#ffffff;fill-opacity:1;stroke:#000000;stroke-width:0.75;stroke-linecap:butt;stroke-linejoin:miter;stroke-miterlimit:4;stroke-dasharray:none;stroke-dashoffset:0;stroke-opacity:1;-inkscape-stroke:none"
       id="rect121-0-15-6-5"
       width="17.772242"
       height="11.393555"
       x="580.875"
       y="563.625"
       ry="3.051398" />
    <text
       x="589.76111"
       y="573.3017"
       text-anchor="middle"
       style="font-size:11.04px;font-family:'Liberation Sans'"
       lengthAdjust="spacingAndGlyphs"
       id="text37">8</text>
  </g>
  <rect
     style="fill:#ffffff;fill-opacity:1;stroke:#000000;stroke-width:1.25;stroke-linecap:butt;stroke-linejoin:miter;stroke-miterlimit:4;stroke-dasharray:none;stroke-dashoffset:0;stroke-opacity:1"
     id="rect171-8-7-1"
     width="223.35681"
     height="179.90178"
     x="586.86951"
     y="311.76663"
     ry="5.7353697" />
  <text
     xml:space="preserve"
     style="font-size:20px;line-height:1.15;font-family:sans-serif;letter-spacing:0px;word-spacing:0px;white-space:pre;stroke-width:0.75"
     x="601.60449"
     y="346.10733"
     id="text131"><tspan
       sodipodi:role="line"
       id="tspan131"
       style="font-style:normal;font-variant:normal;font-weight:bold;font-stretch:normal;font-size:20px;line-height:1.15;font-family:'Proxima Nova';-inkscape-font-specification:'Proxima Nova';stroke-width:0.75"
       x="601.60449"
       y="346.10733">9 Myositis</tspan><tspan
       sodipodi:role="line"
       style="font-style:normal;font-variant:normal;font-weight:bold;font-stretch:normal;font-size:20px;line-height:1.15;font-family:'Proxima Nova';-inkscape-font-specification:'Proxima Nova';stroke-width:0.75"
       x="601.60449"
       y="369.71201"
       id="tspan132">EOMG</tspan><tspan
       sodipodi:role="line"
       style="font-style:normal;font-variant:normal;font-weight:bold;font-stretch:normal;font-size:20px;line-height:1.15;font-family:'Proxima Nova';-inkscape-font-specification:'Proxima Nova';stroke-width:0.75"
       x="601.60449"
       y="393.31671"
       id="tspan133">IgG+ NMO</tspan><tspan
       sodipodi:role="line"
       style="font-style:normal;font-variant:normal;font-weight:bold;font-stretch:normal;font-size:20px;line-height:1.15;font-family:'Proxima Nova';-inkscape-font-specification:'Proxima Nova';stroke-width:0.75"
       x="601.60449"
       y="416.92139"
       id="tspan134">MPO+ AAV</tspan><tspan
       sodipodi:role="line"
       style="font-style:normal;font-variant:normal;font-weight:bold;font-stretch:normal;font-size:20px;line-height:1.15;font-family:'Proxima Nova';-inkscape-font-specification:'Proxima Nova';stroke-width:0.75"
       x="601.60449"
       y="440.52609"
       id="tspan170">SjS</tspan><tspan
       sodipodi:role="line"
       style="font-style:normal;font-variant:normal;font-weight:bold;font-stretch:normal;font-size:20px;line-height:1.15;font-family:'Proxima Nova';-inkscape-font-specification:'Proxima Nova';stroke-width:0.75"
       x="601.60449"
       y="464.13077"
       id="tspan135">SSc</tspan><tspan
       sodipodi:role="line"
       style="font-style:normal;font-variant:normal;font-weight:normal;font-stretch:normal;font-size:20px;line-height:1.15;font-family:'Proxima Nova';-inkscape-font-specification:'Proxima Nova';stroke-width:0.75"
       x="601.60449"
       y="487.13077"
       id="tspan139" /></text>
  <text
     xml:space="preserve"
     style="font-style:normal;font-variant:normal;font-weight:normal;font-stretch:normal;font-size:20px;line-height:1.15;font-family:sans-serif;font-variant-ligatures:normal;font-variant-position:normal;font-variant-caps:normal;font-variant-numeric:normal;font-variant-alternates:normal;font-variant-east-asian:normal;font-feature-settings:normal;font-variation-settings:normal;text-indent:0;text-align:start;text-decoration-line:none;text-decoration-style:solid;text-decoration-color:#000000;letter-spacing:0px;word-spacing:0px;text-transform:none;writing-mode:lr-tb;direction:ltr;text-orientation:mixed;dominant-baseline:auto;baseline-shift:baseline;white-space:pre;vector-effect:none;fill:#000000;fill-opacity:1;stroke-width:0.75;stroke-linecap:butt;stroke-linejoin:miter;stroke-miterlimit:4;stroke-dasharray:none;stroke-dashoffset:0;stroke-opacity:1;-inkscape-stroke:none;stop-color:#000000"
     x="714.91644"
     y="346.73148"
     id="text147"><tspan
       sodipodi:role="line"
       id="tspan147"
       style="font-style:normal;font-variant:normal;font-weight:bold;font-stretch:normal;font-size:20px;line-height:1.15;font-family:'Proxima Nova';-inkscape-font-specification:'Proxima Nova';font-variant-ligatures:normal;font-variant-position:normal;font-variant-caps:normal;font-variant-numeric:normal;font-variant-alternates:normal;font-variant-east-asian:normal;font-feature-settings:normal;text-indent:0;text-align:start;text-decoration-line:none;text-decoration-style:solid;text-decoration-color:#000000;letter-spacing:0px;word-spacing:0px;text-transform:none;writing-mode:lr-tb;direction:ltr;text-orientation:mixed;dominant-baseline:auto;baseline-shift:baseline;white-space:pre;vector-effect:none;fill:#000000;fill-opacity:1;stroke-width:0.75;stroke-linecap:butt;stroke-linejoin:miter;stroke-miterlimit:4;stroke-dasharray:none;stroke-dashoffset:0;stroke-opacity:1;-inkscape-stroke:none;stop-color:#000000;stop-opacity:1"
       x="714.91644"
       y="346.73148">CR(E)ST</tspan><tspan
       sodipodi:role="line"
       style="font-style:normal;font-variant:normal;font-weight:bold;font-stretch:normal;font-size:20px;line-height:1.15;font-family:'Proxima Nova';-inkscape-font-specification:'Proxima Nova';font-variant-ligatures:normal;font-variant-position:normal;font-variant-caps:normal;font-variant-numeric:normal;font-variant-alternates:normal;font-variant-east-asian:normal;font-feature-settings:normal;text-indent:0;text-align:start;text-decoration-line:none;text-decoration-style:solid;text-decoration-color:#000000;letter-spacing:0px;word-spacing:0px;text-transform:none;writing-mode:lr-tb;direction:ltr;text-orientation:mixed;dominant-baseline:auto;baseline-shift:baseline;white-space:pre;vector-effect:none;fill:#000000;fill-opacity:1;stroke-width:0.75;stroke-linecap:butt;stroke-linejoin:miter;stroke-miterlimit:4;stroke-dasharray:none;stroke-dashoffset:0;stroke-opacity:1;-inkscape-stroke:none;stop-color:#000000;stop-opacity:1"
       x="714.91644"
       y="370.33615"
       id="tspan153">Felty</tspan><tspan
       sodipodi:role="line"
       style="font-style:normal;font-variant:normal;font-weight:bold;font-stretch:normal;font-size:20px;line-height:1.15;font-family:'Proxima Nova';-inkscape-font-specification:'Proxima Nova';font-variant-ligatures:normal;font-variant-position:normal;font-variant-caps:normal;font-variant-numeric:normal;font-variant-alternates:normal;font-variant-east-asian:normal;font-feature-settings:normal;text-indent:0;text-align:start;text-decoration-line:none;text-decoration-style:solid;text-decoration-color:#000000;letter-spacing:0px;word-spacing:0px;text-transform:none;writing-mode:lr-tb;direction:ltr;text-orientation:mixed;dominant-baseline:auto;baseline-shift:baseline;white-space:pre;vector-effect:none;fill:#000000;fill-opacity:1;stroke-width:0.75;stroke-linecap:butt;stroke-linejoin:miter;stroke-miterlimit:4;stroke-dasharray:none;stroke-dashoffset:0;stroke-opacity:1;-inkscape-stroke:none;stop-color:#000000;stop-opacity:1"
       x="714.91644"
       y="393.94086"
       id="tspan154">JIA</tspan><tspan
       sodipodi:role="line"
       style="font-style:normal;font-variant:normal;font-weight:bold;font-stretch:normal;font-size:20px;line-height:1.15;font-family:'Proxima Nova';-inkscape-font-specification:'Proxima Nova';font-variant-ligatures:normal;font-variant-position:normal;font-variant-caps:normal;font-variant-numeric:normal;font-variant-alternates:normal;font-variant-east-asian:normal;font-feature-settings:normal;text-indent:0;text-align:start;text-decoration-line:none;text-decoration-style:solid;text-decoration-color:#000000;letter-spacing:0px;word-spacing:0px;text-transform:none;writing-mode:lr-tb;direction:ltr;text-orientation:mixed;dominant-baseline:auto;baseline-shift:baseline;white-space:pre;vector-effect:none;fill:#000000;fill-opacity:1;stroke-width:0.75;stroke-linecap:butt;stroke-linejoin:miter;stroke-miterlimit:4;stroke-dasharray:none;stroke-dashoffset:0;stroke-opacity:1;-inkscape-stroke:none;stop-color:#000000;stop-opacity:1"
       x="714.91644"
       y="417.54553"
       id="tspan171">PBC</tspan><tspan
       sodipodi:role="line"
       style="font-style:normal;font-variant:normal;font-weight:bold;font-stretch:normal;font-size:20px;line-height:1.15;font-family:'Proxima Nova';-inkscape-font-specification:'Proxima Nova';font-variant-ligatures:normal;font-variant-position:normal;font-variant-caps:normal;font-variant-numeric:normal;font-variant-alternates:normal;font-variant-east-asian:normal;font-feature-settings:normal;text-indent:0;text-align:start;text-decoration-line:none;text-decoration-style:solid;text-decoration-color:#000000;letter-spacing:0px;word-spacing:0px;text-transform:none;writing-mode:lr-tb;direction:ltr;text-orientation:mixed;dominant-baseline:auto;baseline-shift:baseline;white-space:pre;vector-effect:none;fill:#000000;fill-opacity:1;stroke-width:0.75;stroke-linecap:butt;stroke-linejoin:miter;stroke-miterlimit:4;stroke-dasharray:none;stroke-dashoffset:0;stroke-opacity:1;-inkscape-stroke:none;stop-color:#000000;stop-opacity:1"
       x="714.91644"
       y="441.15024"
       id="tspan122">SLE</tspan><tspan
       sodipodi:role="line"
       style="font-style:normal;font-variant:normal;font-weight:bold;font-stretch:normal;font-size:20px;line-height:1.15;font-family:'Proxima Nova';-inkscape-font-specification:'Proxima Nova';font-variant-ligatures:normal;font-variant-position:normal;font-variant-caps:normal;font-variant-numeric:normal;font-variant-alternates:normal;font-variant-east-asian:normal;font-feature-settings:normal;text-indent:0;text-align:start;text-decoration-line:none;text-decoration-style:solid;text-decoration-color:#000000;letter-spacing:0px;word-spacing:0px;text-transform:none;writing-mode:lr-tb;direction:ltr;text-orientation:mixed;dominant-baseline:auto;baseline-shift:baseline;white-space:pre;vector-effect:none;fill:#000000;fill-opacity:1;stroke-width:0.75;stroke-linecap:butt;stroke-linejoin:miter;stroke-miterlimit:4;stroke-dasharray:none;stroke-dashoffset:0;stroke-opacity:1;-inkscape-stroke:none;stop-color:#000000;stop-opacity:1"
       x="714.91644"
       y="464.75491"
       id="tspan155" /><tspan
       sodipodi:role="line"
       style="font-style:normal;font-variant:normal;font-weight:normal;font-stretch:normal;font-size:20px;line-height:1.15;font-family:'Proxima Nova';-inkscape-font-specification:'Proxima Nova';font-variant-ligatures:normal;font-variant-position:normal;font-variant-caps:normal;font-variant-numeric:normal;font-variant-alternates:normal;font-variant-east-asian:normal;font-feature-settings:normal;text-indent:0;text-align:start;text-decoration-line:none;text-decoration-style:solid;text-decoration-color:#000000;letter-spacing:0px;word-spacing:0px;text-transform:none;writing-mode:lr-tb;direction:ltr;text-orientation:mixed;dominant-baseline:auto;baseline-shift:baseline;white-space:pre;vector-effect:none;fill:#000000;fill-opacity:1;stroke-width:0.75;stroke-linecap:butt;stroke-linejoin:miter;stroke-miterlimit:4;stroke-dasharray:none;stroke-dashoffset:0;stroke-opacity:1;-inkscape-stroke:none;stop-color:#000000;stop-opacity:1"
       x="714.91644"
       y="488.35959"
       id="tspan148" /><tspan
       sodipodi:role="line"
       style="font-style:normal;font-variant:normal;font-weight:normal;font-stretch:normal;font-size:20px;line-height:1.15;font-family:'Proxima Nova';-inkscape-font-specification:'Proxima Nova';font-variant-ligatures:normal;font-variant-position:normal;font-variant-caps:normal;font-variant-numeric:normal;font-variant-alternates:normal;font-variant-east-asian:normal;font-feature-settings:normal;text-indent:0;text-align:start;text-decoration-line:none;text-decoration-style:solid;text-decoration-color:#000000;letter-spacing:0px;word-spacing:0px;text-transform:none;writing-mode:lr-tb;direction:ltr;text-orientation:mixed;dominant-baseline:auto;baseline-shift:baseline;white-space:pre;vector-effect:none;fill:#000000;fill-opacity:1;stroke-width:0.75;stroke-linecap:butt;stroke-linejoin:miter;stroke-miterlimit:4;stroke-dasharray:none;stroke-dashoffset:0;stroke-opacity:1;-inkscape-stroke:none;stop-color:#000000;stop-opacity:1"
       x="714.91644"
       y="511.96429"
       id="tspan149" /><tspan
       sodipodi:role="line"
       style="font-style:normal;font-variant:normal;font-weight:normal;font-stretch:normal;font-size:20px;line-height:1.15;font-family:'Proxima Nova';-inkscape-font-specification:'Proxima Nova';font-variant-ligatures:normal;font-variant-position:normal;font-variant-caps:normal;font-variant-numeric:normal;font-variant-alternates:normal;font-variant-east-asian:normal;font-feature-settings:normal;text-indent:0;text-align:start;text-decoration-line:none;text-decoration-style:solid;text-decoration-color:#000000;letter-spacing:0px;word-spacing:0px;text-transform:none;writing-mode:lr-tb;direction:ltr;text-orientation:mixed;dominant-baseline:auto;baseline-shift:baseline;white-space:pre;vector-effect:none;fill:#000000;fill-opacity:1;stroke-width:0.75;stroke-linecap:butt;stroke-linejoin:miter;stroke-miterlimit:4;stroke-dasharray:none;stroke-dashoffset:0;stroke-opacity:1;-inkscape-stroke:none;stop-color:#000000;stop-opacity:1"
       x="714.91644"
       y="534.96429"
       id="tspan150" /></text>
  <rect
     style="fill:#ffffff;fill-opacity:1;stroke:#000000;stroke-width:1.47348;stroke-linecap:butt;stroke-linejoin:miter;stroke-miterlimit:4;stroke-dasharray:none;stroke-dashoffset:0;stroke-opacity:1"
     id="rect171-8-7"
     width="223.26143"
     height="81.028442"
     x="587.28174"
     y="497.74786"
     ry="7.9776039" />
  <text
     xml:space="preserve"
     style="font-size:20px;line-height:1.25;font-family:sans-serif;letter-spacing:0px;word-spacing:0px;white-space:pre;stroke-width:0.75"
     x="600.68451"
     y="519.47858"
     id="text131-4"><tspan
       sodipodi:role="line"
       style="font-style:normal;font-variant:normal;font-weight:bold;font-stretch:normal;font-size:20px;font-family:'Proxima Nova';-inkscape-font-specification:'Proxima Nova';stroke-width:0.75"
       x="600.68451"
       y="519.47858"
       id="tspan2">HyperThy</tspan><tspan
       sodipodi:role="line"
       style="font-style:normal;font-variant:normal;font-weight:bold;font-stretch:normal;font-size:20px;font-family:'Proxima Nova';-inkscape-font-specification:'Proxima Nova';stroke-width:0.75"
       x="600.68451"
       y="545.08325"
       id="tspan120">LOMG</tspan><tspan
       sodipodi:role="line"
       style="font-style:normal;font-variant:normal;font-weight:bold;font-stretch:normal;font-size:20px;font-family:'Proxima Nova';-inkscape-font-specification:'Proxima Nova';stroke-width:0.75"
       x="600.68451"
       y="570.68793"
       id="tspan121">PR</tspan><tspan
       sodipodi:role="line"
       style="font-style:normal;font-variant:normal;font-weight:bold;font-stretch:normal;font-size:20px;font-family:'Proxima Nova';-inkscape-font-specification:'Proxima Nova';stroke-width:0.75"
       x="600.68451"
       y="596.29266"
       id="tspan4" /><tspan
       sodipodi:role="line"
       style="font-style:normal;font-variant:normal;font-weight:normal;font-stretch:normal;font-size:20px;font-family:'Proxima Nova';-inkscape-font-specification:'Proxima Nova';stroke-width:0.75"
       x="600.68451"
       y="621.29266"
       id="tspan162" /></text>
  <text
     xml:space="preserve"
     style="font-size:20px;line-height:1.25;font-family:sans-serif;letter-spacing:0px;word-spacing:0px;white-space:pre;stroke-width:0.75"
     x="713.71643"
     y="520.42444"
     id="text131-4-9"><tspan
       sodipodi:role="line"
       style="font-style:normal;font-variant:normal;font-weight:bold;font-stretch:normal;font-size:20px;font-family:'Proxima Nova';-inkscape-font-specification:'Proxima Nova';stroke-width:0.75"
       x="713.71643"
       y="520.42444"
       id="tspan2-2">HypoThy</tspan><tspan
       sodipodi:role="line"
       style="font-style:normal;font-variant:normal;font-weight:bold;font-stretch:normal;font-size:20px;font-family:'Proxima Nova';-inkscape-font-specification:'Proxima Nova';stroke-width:0.75"
       x="713.71643"
       y="546.02911"
       id="tspan120-0">MG</tspan><tspan
       sodipodi:role="line"
       style="font-style:normal;font-variant:normal;font-weight:bold;font-stretch:normal;font-size:20px;font-family:'Proxima Nova';-inkscape-font-specification:'Proxima Nova';stroke-width:0.75"
       x="713.71643"
       y="571.63379"
       id="tspan77">GPA</tspan><tspan
       sodipodi:role="line"
       style="font-style:normal;font-variant:normal;font-weight:bold;font-stretch:normal;font-size:20px;font-family:'Proxima Nova';-inkscape-font-specification:'Proxima Nova';stroke-width:0.75"
       x="713.71643"
       y="597.23853"
       id="tspan4-3" /><tspan
       sodipodi:role="line"
       style="font-style:normal;font-variant:normal;font-weight:normal;font-stretch:normal;font-size:20px;font-family:'Proxima Nova';-inkscape-font-specification:'Proxima Nova';stroke-width:0.75"
       x="713.71643"
       y="622.23853"
       id="tspan162-7" /></text>
</svg>
