<?xml version="1.0" encoding="UTF-8" standalone="no"?>
<svg
   class="svglite"
   width="1100"
   height="840"
   viewBox="0 0 825 630"
   version="1.1"
   id="svg74"
   sodipodi:docname="sdiag_Bh_DP_mod_v1.svg"
   inkscape:version="1.3 (0e150ed6c4, 2023-07-21)"
   xmlns:inkscape="http://www.inkscape.org/namespaces/inkscape"
   xmlns:sodipodi="http://sodipodi.sourceforge.net/DTD/sodipodi-0.dtd"
   xmlns="http://www.w3.org/2000/svg"
   xmlns:svg="http://www.w3.org/2000/svg">
  <sodipodi:namedview
     id="namedview74"
     pagecolor="#ffffff"
     bordercolor="#666666"
     borderopacity="1.0"
     inkscape:showpageshadow="2"
     inkscape:pageopacity="0.0"
     inkscape:pagecheckerboard="0"
     inkscape:deskcolor="#d1d1d1"
     inkscape:document-units="pt"
     inkscape:zoom="1.3307357"
     inkscape:cx="592.15366"
     inkscape:cy="120.60998"
     inkscape:window-width="1920"
     inkscape:window-height="1011"
     inkscape:window-x="0"
     inkscape:window-y="32"
     inkscape:window-maximized="1"
     inkscape:current-layer="svg74"
     showguides="true" />
  <defs
     id="defs1">
    <style
       type="text/css"
       id="style1"><![CDATA[
    .svglite line, .svglite polyline, .svglite polygon, .svglite path, .svglite rect, .svglite circle {
      fill: none;
      stroke: #000000;
      stroke-linecap: round;
      stroke-linejoin: round;
      stroke-miterlimit: 10.00;
    }
    .svglite text {
      white-space: pre;
    }
  ]]></style>
    <clipPath
       clipPathUnits="userSpaceOnUse"
       id="clipPath76">
      <g
         id="g77">
        <rect
           x="8.2200003"
           y="23.32"
           width="562.29999"
           height="602.08002"
           id="rect76" />
      </g>
    </clipPath>
    <clipPath
       clipPathUnits="userSpaceOnUse"
       id="clipPath77">
      <g
         id="g78">
        <rect
           x="8.2200003"
           y="23.32"
           width="562.29999"
           height="602.08002"
           id="rect77" />
      </g>
    </clipPath>
    <clipPath
       clipPathUnits="userSpaceOnUse"
       id="clipPath78">
      <g
         id="g79">
        <rect
           x="8.2200003"
           y="23.32"
           width="562.29999"
           height="602.08002"
           id="rect78" />
      </g>
    </clipPath>
    <clipPath
       clipPathUnits="userSpaceOnUse"
       id="clipPath79">
      <g
         id="g80">
        <rect
           x="8.2200003"
           y="23.32"
           width="562.29999"
           height="602.08002"
           id="rect79" />
      </g>
    </clipPath>
    <clipPath
       clipPathUnits="userSpaceOnUse"
       id="clipPath80">
      <g
         id="g81">
        <rect
           x="8.2200003"
           y="23.32"
           width="562.29999"
           height="602.08002"
           id="rect80" />
      </g>
    </clipPath>
    <clipPath
       clipPathUnits="userSpaceOnUse"
       id="clipPath81">
      <g
         id="g82">
        <rect
           x="8.2200003"
           y="23.32"
           width="562.29999"
           height="602.08002"
           id="rect81" />
      </g>
    </clipPath>
    <clipPath
       clipPathUnits="userSpaceOnUse"
       id="clipPath82">
      <g
         id="g83">
        <rect
           x="8.2200003"
           y="23.32"
           width="562.29999"
           height="602.08002"
           id="rect82" />
      </g>
    </clipPath>
    <clipPath
       clipPathUnits="userSpaceOnUse"
       id="clipPath83">
      <g
         id="g84">
        <rect
           x="8.2200003"
           y="23.32"
           width="562.29999"
           height="602.08002"
           id="rect83" />
      </g>
    </clipPath>
    <clipPath
       clipPathUnits="userSpaceOnUse"
       id="clipPath84">
      <g
         id="g85">
        <rect
           x="8.2200003"
           y="23.32"
           width="562.29999"
           height="602.08002"
           id="rect84" />
      </g>
    </clipPath>
    <clipPath
       clipPathUnits="userSpaceOnUse"
       id="clipPath85">
      <g
         id="g86">
        <rect
           x="8.2200003"
           y="23.32"
           width="562.29999"
           height="602.08002"
           id="rect85" />
      </g>
    </clipPath>
    <clipPath
       clipPathUnits="userSpaceOnUse"
       id="clipPath86">
      <g
         id="g87">
        <rect
           x="8.2200003"
           y="23.32"
           width="562.29999"
           height="602.08002"
           id="rect86" />
      </g>
    </clipPath>
    <clipPath
       clipPathUnits="userSpaceOnUse"
       id="clipPath87">
      <g
         id="g88">
        <rect
           x="8.2200003"
           y="23.32"
           width="562.29999"
           height="602.08002"
           id="rect87" />
      </g>
    </clipPath>
    <clipPath
       clipPathUnits="userSpaceOnUse"
       id="clipPath88">
      <g
         id="g89">
        <rect
           x="8.2200003"
           y="23.32"
           width="562.29999"
           height="602.08002"
           id="rect88" />
      </g>
    </clipPath>
    <clipPath
       clipPathUnits="userSpaceOnUse"
       id="clipPath89">
      <g
         id="g90">
        <rect
           x="8.2200003"
           y="23.32"
           width="562.29999"
           height="602.08002"
           id="rect89" />
      </g>
    </clipPath>
    <clipPath
       clipPathUnits="userSpaceOnUse"
       id="clipPath90">
      <g
         id="g91">
        <rect
           x="8.2200003"
           y="23.32"
           width="562.29999"
           height="602.08002"
           id="rect90" />
      </g>
    </clipPath>
    <clipPath
       clipPathUnits="userSpaceOnUse"
       id="clipPath91">
      <g
         id="g92">
        <rect
           x="8.2200003"
           y="23.32"
           width="562.29999"
           height="602.08002"
           id="rect91" />
      </g>
    </clipPath>
    <clipPath
       clipPathUnits="userSpaceOnUse"
       id="clipPath92">
      <g
         id="g93">
        <rect
           x="8.2200003"
           y="23.32"
           width="562.29999"
           height="602.08002"
           id="rect92" />
      </g>
    </clipPath>
    <clipPath
       clipPathUnits="userSpaceOnUse"
       id="clipPath93">
      <g
         id="g94">
        <rect
           x="8.2200003"
           y="23.32"
           width="562.29999"
           height="602.08002"
           id="rect93" />
      </g>
    </clipPath>
    <clipPath
       clipPathUnits="userSpaceOnUse"
       id="clipPath94">
      <g
         id="g95">
        <rect
           x="8.2200003"
           y="23.32"
           width="562.29999"
           height="602.08002"
           id="rect94" />
      </g>
    </clipPath>
    <clipPath
       clipPathUnits="userSpaceOnUse"
       id="clipPath95">
      <g
         id="g96">
        <rect
           x="8.2200003"
           y="23.32"
           width="562.29999"
           height="602.08002"
           id="rect95" />
      </g>
    </clipPath>
    <clipPath
       clipPathUnits="userSpaceOnUse"
       id="clipPath96">
      <g
         id="g97">
        <rect
           x="8.2200003"
           y="23.32"
           width="562.29999"
           height="602.08002"
           id="rect96" />
      </g>
    </clipPath>
    <clipPath
       clipPathUnits="userSpaceOnUse"
       id="clipPath97">
      <g
         id="g98">
        <rect
           x="8.2200003"
           y="23.32"
           width="562.29999"
           height="602.08002"
           id="rect97" />
      </g>
    </clipPath>
    <clipPath
       clipPathUnits="userSpaceOnUse"
       id="clipPath98">
      <g
         id="g99">
        <rect
           x="8.2200003"
           y="23.32"
           width="562.29999"
           height="602.08002"
           id="rect98" />
      </g>
    </clipPath>
    <clipPath
       clipPathUnits="userSpaceOnUse"
       id="clipPath99">
      <g
         id="g100">
        <rect
           x="8.2200003"
           y="23.32"
           width="562.29999"
           height="602.08002"
           id="rect99" />
      </g>
    </clipPath>
    <clipPath
       clipPathUnits="userSpaceOnUse"
       id="clipPath100">
      <g
         id="g101">
        <rect
           x="8.2200003"
           y="23.32"
           width="562.29999"
           height="602.08002"
           id="rect100" />
      </g>
    </clipPath>
    <clipPath
       clipPathUnits="userSpaceOnUse"
       id="clipPath101">
      <g
         id="g102">
        <rect
           x="8.2200003"
           y="23.32"
           width="562.29999"
           height="602.08002"
           id="rect101" />
      </g>
    </clipPath>
    <clipPath
       clipPathUnits="userSpaceOnUse"
       id="clipPath102">
      <g
         id="g103">
        <rect
           x="8.2200003"
           y="23.32"
           width="562.29999"
           height="602.08002"
           id="rect102" />
      </g>
    </clipPath>
    <clipPath
       clipPathUnits="userSpaceOnUse"
       id="clipPath103">
      <g
         id="g104">
        <rect
           x="8.2200003"
           y="23.32"
           width="562.29999"
           height="602.08002"
           id="rect103" />
      </g>
    </clipPath>
    <clipPath
       clipPathUnits="userSpaceOnUse"
       id="clipPath104">
      <g
         id="g105">
        <rect
           x="8.2200003"
           y="23.32"
           width="562.29999"
           height="602.08002"
           id="rect104" />
      </g>
    </clipPath>
    <clipPath
       clipPathUnits="userSpaceOnUse"
       id="clipPath105">
      <g
         id="g106">
        <rect
           x="8.2200003"
           y="23.32"
           width="562.29999"
           height="602.08002"
           id="rect105" />
      </g>
    </clipPath>
    <clipPath
       clipPathUnits="userSpaceOnUse"
       id="clipPath106">
      <g
         id="g107">
        <rect
           x="8.2200003"
           y="23.32"
           width="562.29999"
           height="602.08002"
           id="rect106" />
      </g>
    </clipPath>
    <clipPath
       clipPathUnits="userSpaceOnUse"
       id="clipPath107">
      <g
         id="g108">
        <rect
           x="8.2200003"
           y="23.32"
           width="562.29999"
           height="602.08002"
           id="rect107" />
      </g>
    </clipPath>
    <clipPath
       clipPathUnits="userSpaceOnUse"
       id="clipPath108">
      <g
         id="g109">
        <rect
           x="8.2200003"
           y="23.32"
           width="562.29999"
           height="602.08002"
           id="rect108" />
      </g>
    </clipPath>
    <clipPath
       clipPathUnits="userSpaceOnUse"
       id="clipPath109">
      <g
         id="g110">
        <rect
           x="8.2200003"
           y="23.32"
           width="562.29999"
           height="602.08002"
           id="rect109" />
      </g>
    </clipPath>
    <clipPath
       clipPathUnits="userSpaceOnUse"
       id="clipPath110">
      <g
         id="g111">
        <rect
           x="8.2200003"
           y="23.32"
           width="562.29999"
           height="602.08002"
           id="rect110" />
      </g>
    </clipPath>
    <clipPath
       clipPathUnits="userSpaceOnUse"
       id="clipPath111">
      <g
         id="g112">
        <rect
           x="8.2200003"
           y="23.32"
           width="562.29999"
           height="602.08002"
           id="rect111" />
      </g>
    </clipPath>
    <clipPath
       clipPathUnits="userSpaceOnUse"
       id="clipPath112">
      <g
         id="g113">
        <rect
           x="8.2200003"
           y="23.32"
           width="562.29999"
           height="602.08002"
           id="rect112" />
      </g>
    </clipPath>
    <clipPath
       clipPathUnits="userSpaceOnUse"
       id="clipPath113">
      <g
         id="g114">
        <rect
           x="8.2200003"
           y="23.32"
           width="562.29999"
           height="602.08002"
           id="rect113" />
      </g>
    </clipPath>
    <clipPath
       clipPathUnits="userSpaceOnUse"
       id="clipPath114">
      <g
         id="g115">
        <rect
           x="8.2200003"
           y="23.32"
           width="562.29999"
           height="602.08002"
           id="rect114" />
      </g>
    </clipPath>
    <clipPath
       clipPathUnits="userSpaceOnUse"
       id="clipPath115">
      <g
         id="g116">
        <rect
           x="8.2200003"
           y="23.32"
           width="562.29999"
           height="602.08002"
           id="rect115" />
      </g>
    </clipPath>
    <clipPath
       clipPathUnits="userSpaceOnUse"
       id="clipPath116">
      <g
         id="g117">
        <rect
           x="8.2200003"
           y="23.32"
           width="562.29999"
           height="602.08002"
           id="rect116" />
      </g>
    </clipPath>
    <clipPath
       clipPathUnits="userSpaceOnUse"
       id="clipPath117">
      <g
         id="g118">
        <rect
           x="8.2200003"
           y="23.32"
           width="562.29999"
           height="602.08002"
           id="rect117" />
      </g>
    </clipPath>
    <clipPath
       clipPathUnits="userSpaceOnUse"
       id="clipPath118">
      <g
         id="g119">
        <rect
           x="8.2200003"
           y="23.32"
           width="562.29999"
           height="602.08002"
           id="rect118" />
      </g>
    </clipPath>
    <clipPath
       clipPathUnits="userSpaceOnUse"
       id="clipPath119">
      <g
         id="g120">
        <rect
           x="8.2200003"
           y="23.32"
           width="562.29999"
           height="602.08002"
           id="rect119" />
      </g>
    </clipPath>
    <clipPath
       clipPathUnits="userSpaceOnUse"
       id="clipPath120">
      <g
         id="g121">
        <rect
           x="8.2200003"
           y="23.32"
           width="562.29999"
           height="602.08002"
           id="rect120" />
      </g>
    </clipPath>
  </defs>
  <rect
     width="100.00089%"
     height="99.902138%"
     style="fill:#ffffff;stroke:none;stroke-width:0.999515"
     id="rect1"
     x="0"
     y="0" />
  <rect
     style="opacity:1;fill:#bad4ed;fill-opacity:1;stroke:none;stroke-width:1.25;stroke-linecap:butt;stroke-linejoin:miter;stroke-miterlimit:4;stroke-dasharray:none;stroke-dashoffset:0;stroke-opacity:1"
     id="rect172"
     width="30.129004"
     height="6.8785095"
     x="567.84125"
     y="278.80804"
     ry="3.4392548" />
  <rect
     style="fill:#bad4ed;fill-opacity:1;stroke:none;stroke-width:1.25;stroke-linecap:butt;stroke-linejoin:miter;stroke-miterlimit:4;stroke-dasharray:none;stroke-dashoffset:0;stroke-opacity:1"
     id="rect172-5"
     width="32.003342"
     height="36.294731"
     x="566.88129"
     y="308.10931"
     ry="3.4392548" />
  <rect
     style="fill:#bad4ed;fill-opacity:1;stroke:none;stroke-width:1.25;stroke-linecap:butt;stroke-linejoin:miter;stroke-miterlimit:4;stroke-dasharray:none;stroke-dashoffset:0;stroke-opacity:1"
     id="rect172-5-7"
     width="37.214573"
     height="132.71513"
     x="566.72388"
     y="374.28961"
     ry="3.4392548" />
  <rect
     style="fill:#bad4ed;fill-opacity:1;stroke:none;stroke-width:1.25;stroke-linecap:butt;stroke-linejoin:miter;stroke-miterlimit:4;stroke-dasharray:none;stroke-dashoffset:0;stroke-opacity:1"
     id="rect172-5-7-3"
     width="35.205517"
     height="43.976841"
     x="565.96655"
     y="56.26033"
     ry="3.4392548" />
  <defs
     id="defs2">
    <clipPath
       id="cpMC4wMHw1NzYuMDB8MC4wMHw2NDguMDA=">
      <rect
         x="0"
         y="0"
         width="576"
         height="648"
         id="rect2" />
    </clipPath>
  </defs>
  <g
     clip-path="url(#cpMC4wMHw1NzYuMDB8MC4wMHw2NDguMDA=)"
     id="g2"
     transform="translate(0,-31.5)" />
  <defs
     id="defs3" />
  <polygon
     points="354.45,299.71 350.73,295.86 346.91,291.77 342.98,287.41 338.94,282.8 334.76,277.92 330.47,272.79 326.05,267.41 321.5,261.8 316.85,255.99 312.09,249.98 307.25,243.82 302.33,237.52 297.37,231.13 292.36,224.67 287.35,218.2 282.34,211.74 277.37,205.33 272.44,199.01 267.58,192.82 262.81,186.78 258.13,180.93 253.57,175.28 249.12,169.86 244.8,164.68 240.6,159.75 236.53,155.08 232.58,150.67 228.74,146.53 225,142.64 224.29,141.91 219.09,136.84 214.02,132.28 209.03,128.2 204.03,124.57 198.96,121.33 193.73,118.44 188.29,115.84 182.61,113.51 176.67,111.42 170.51,109.56 164.24,107.91 158.01,106.49 152.05,105.29 146.62,104.33 141.96,103.59 138.28,103.07 135.67,102.74 134.09,102.56 133.36,102.48 133.18,102.46 -23.02,102.46 -23.02,139.45 133.18,139.45 133.25,139.45 133.75,139.51 135.02,139.65 137.27,139.92 140.59,140.38 144.93,141.04 150.13,141.92 155.95,143.04 162.11,144.39 168.39,145.96 174.6,147.74 180.62,149.76 186.39,152 191.91,154.51 197.2,157.3 202.32,160.41 207.34,163.91 212.32,167.82 217.36,172.21 222.51,177.11 224.29,178.9 228.01,182.74 231.83,186.83 235.76,191.19 239.8,195.8 243.98,200.68 248.27,205.81 252.69,211.19 257.24,216.8 261.89,222.61 266.65,228.62 271.49,234.78 276.41,241.08 281.37,247.47 286.38,253.93 291.39,260.4 296.4,266.86 301.37,273.27 306.3,279.59 311.16,285.78 315.93,291.82 320.61,297.67 325.17,303.32 329.62,308.74 333.94,313.92 338.14,318.85 342.21,323.52 346.16,327.93 350,332.07 353.74,335.96 354.45,336.69 359.65,341.76 364.72,346.32 369.71,350.4 374.71,354.03 379.78,357.27 385.01,360.16 390.45,362.76 396.13,365.09 402.07,367.18 408.23,369.04 414.5,370.69 420.73,372.11 426.69,373.31 432.12,374.27 436.78,375.01 440.46,375.53 443.07,375.86 444.65,376.04 445.38,376.12 445.56,376.14 601.76,376.14 601.76,339.15 445.56,339.15 445.49,339.15 444.98,339.1 443.72,338.95 441.47,338.68 438.15,338.22 433.81,337.56 428.6,336.68 422.79,335.56 416.63,334.21 410.35,332.64 404.14,330.86 398.12,328.84 392.35,326.6 386.83,324.1 381.54,321.3 376.42,318.19 371.4,314.69 366.42,310.78 361.38,306.39 356.23,301.49 "
     style="fill:#77aadd;fill-opacity:0.5;stroke:none;stroke-width:1.07"
     id="polygon3"
     clip-path="url(#clipPath120)"
     transform="translate(0,-31.5)" />
  <polygon
     points="325.15,243.55 320.45,238.28 315.64,232.82 310.72,227.18 305.72,221.39 300.64,215.49 295.51,209.51 290.36,203.48 285.21,197.45 280.07,191.44 274.97,185.5 269.94,179.67 264.98,173.97 260.13,168.43 255.38,163.09 250.76,157.95 246.27,153.04 241.92,148.37 237.69,143.94 233.59,139.77 229.62,135.84 225.75,132.17 224.29,130.82 219.05,126.19 213.95,122.03 208.92,118.32 203.89,115.01 198.77,112.07 193.5,109.44 188.01,107.08 182.27,104.96 176.28,103.07 170.07,101.38 163.75,99.9 157.49,98.61 151.52,97.54 146.11,96.68 141.51,96.03 137.92,95.58 135.42,95.29 133.95,95.14 133.31,95.08 133.18,95.07 -23.02,95.07 -23.02,102.46 133.18,102.46 133.25,102.47 133.77,102.52 135.06,102.65 137.35,102.91 140.73,103.32 145.14,103.94 150.41,104.75 156.3,105.79 162.52,107.03 168.84,108.47 175.08,110.12 181.13,111.97 186.92,114.04 192.45,116.35 197.76,118.93 202.9,121.81 207.94,125.04 212.97,128.67 218.05,132.74 223.26,137.28 224.29,138.21 228.12,141.8 232.05,145.63 236.1,149.7 240.27,154.03 244.58,158.61 249.02,163.43 253.59,168.48 258.29,173.75 263.1,179.21 268.02,184.86 273.02,190.64 278.1,196.54 283.22,202.53 288.38,208.55 293.53,214.59 298.67,220.59 303.77,226.53 308.8,232.36 313.76,238.06 318.61,243.6 323.36,248.95 327.98,254.08 332.47,258.99 336.82,263.67 341.05,268.09 345.15,272.26 349.12,276.19 352.99,279.86 354.45,281.21 359.69,285.84 364.79,290 369.82,293.71 374.85,297.02 379.97,299.96 385.24,302.6 390.73,304.95 396.47,307.07 402.46,308.96 408.67,310.65 414.99,312.14 421.25,313.42 427.22,314.49 432.63,315.35 437.23,316 440.82,316.46 443.32,316.74 444.79,316.89 445.43,316.95 445.56,316.96 601.76,316.96 601.76,309.57 445.56,309.57 445.49,309.56 444.97,309.51 443.68,309.38 441.39,309.13 438.01,308.71 433.6,308.1 428.33,307.28 422.44,306.25 416.22,305 409.9,303.56 403.66,301.91 397.61,300.06 391.82,297.99 386.29,295.68 380.98,293.1 375.84,290.22 370.8,286.99 365.77,283.36 360.69,279.29 355.48,274.76 354.45,273.82 350.62,270.23 346.69,266.41 342.64,262.33 338.47,258 334.16,253.42 329.72,248.6 "
     style="fill:#77aadd;fill-opacity:0.5;stroke:none;stroke-width:1.07"
     id="polygon4"
     clip-path="url(#clipPath119)"
     transform="translate(0,-31.5)" />
  <polygon
     points="141.44,95.23 146.19,95.35 151.82,95.5 158.03,95.7 164.52,95.93 171.06,96.2 177.45,96.51 183.61,96.85 189.49,97.24 195.1,97.68 200.5,98.16 205.75,98.71 210.95,99.33 216.18,100.02 221.52,100.8 224.29,101.23 228.93,101.98 233.72,102.8 238.69,103.67 243.85,104.61 249.2,105.61 254.75,106.67 260.47,107.78 266.36,108.94 272.39,110.14 278.52,111.37 284.72,112.62 290.95,113.88 297.16,115.13 303.33,116.37 309.41,117.59 315.37,118.77 321.18,119.9 326.82,120.99 332.27,122.02 337.52,122.99 342.58,123.9 347.46,124.74 352.18,125.52 354.45,125.89 359.87,126.71 365.15,127.45 370.35,128.11 375.57,128.69 380.88,129.2 386.38,129.66 392.12,130.07 398.13,130.44 404.42,130.77 410.9,131.06 417.44,131.31 423.83,131.52 429.79,131.7 435.02,131.83 439.26,131.93 442.36,131.99 444.32,132.03 445.28,132.05 445.55,132.05 445.56,132.05 601.76,132.05 601.76,87.67 445.56,87.67 445.48,87.67 444.91,87.66 443.49,87.64 440.98,87.59 437.3,87.51 432.55,87.39 426.92,87.24 420.71,87.04 414.22,86.81 407.68,86.54 401.28,86.23 395.13,85.89 389.25,85.5 383.64,85.06 378.24,84.58 372.99,84.03 367.79,83.41 362.56,82.72 357.22,81.94 354.45,81.51 349.81,80.76 345.02,79.94 340.05,79.07 334.89,78.13 329.54,77.13 323.99,76.07 318.27,74.95 312.38,73.79 306.35,72.6 300.22,71.37 294.02,70.12 287.79,68.86 281.57,67.61 275.41,66.37 269.32,65.15 263.37,63.97 257.56,62.84 251.92,61.75 246.47,60.72 241.22,59.75 236.16,58.84 231.28,58 226.56,57.22 224.29,56.85 218.87,56.03 213.59,55.29 208.39,54.63 203.17,54.05 197.86,53.54 192.36,53.08 186.62,52.67 180.61,52.3 174.32,51.97 167.84,51.68 161.3,51.43 154.91,51.22 148.95,51.04 143.72,50.91 139.48,50.81 136.38,50.75 134.42,50.71 133.46,50.69 133.19,50.69 133.18,50.69 -23.02,50.69 -23.02,95.07 133.18,95.07 133.26,95.07 133.83,95.08 135.25,95.1 137.76,95.15 "
     style="fill:#77aadd;fill-opacity:0.5;stroke:none;stroke-width:1.07"
     id="polygon5"
     clip-path="url(#clipPath118)"
     transform="translate(0,-31.5)" />
  <polygon
     points="417.2,400.31 410.99,398.59 404.83,396.63 398.85,394.42 393.1,391.95 387.6,389.2 382.34,386.15 377.25,382.74 372.27,378.92 367.34,374.65 362.37,369.86 357.3,364.52 354.45,361.34 350.86,357.18 347.19,352.76 343.41,348.06 339.53,343.09 335.52,337.84 331.41,332.33 327.17,326.56 322.82,320.55 318.37,314.31 313.82,307.86 309.18,301.24 304.47,294.46 299.7,287.57 294.89,280.6 290.06,273.59 285.23,266.57 280.41,259.58 275.63,252.66 270.9,245.85 266.24,239.18 261.66,232.68 257.17,226.38 252.8,220.3 248.53,214.46 244.38,208.87 240.34,203.55 236.42,198.5 232.62,193.72 228.91,189.22 225.3,184.99 224.29,183.83 219.14,178.17 214.12,173.08 209.18,168.54 204.24,164.48 199.22,160.85 194.06,157.6 188.69,154.69 183.08,152.08 177.22,149.73 171.15,147.63 164.95,145.77 158.77,144.16 152.82,142.79 147.35,141.69 142.61,140.83 138.8,140.21 136.04,139.81 134.3,139.58 133.44,139.48 133.19,139.45 133.18,139.45 -23.02,139.45 -23.02,272.58 133.18,272.58 133.25,272.59 133.74,272.65 134.97,272.8 137.16,273.1 140.39,273.6 144.64,274.32 149.74,275.29 155.46,276.52 161.54,277.99 167.75,279.72 173.91,281.68 179.89,283.89 185.64,286.36 191.14,289.1 196.4,292.16 201.49,295.57 206.47,299.39 211.4,303.66 216.37,308.45 221.44,313.79 224.29,316.96 227.87,321.12 231.55,325.55 235.33,330.25 239.21,335.22 243.21,340.46 247.33,345.98 251.57,351.75 255.91,357.76 260.37,364 264.92,370.45 269.56,377.07 274.27,383.85 279.04,390.74 283.85,397.71 288.68,404.72 293.51,411.74 298.33,418.73 303.11,425.65 307.84,432.46 312.5,439.13 317.08,445.63 321.57,451.93 325.94,458.01 330.21,463.85 334.36,469.44 338.4,474.76 342.32,479.81 346.12,484.58 349.83,489.09 353.44,493.32 354.45,494.48 359.6,500.14 364.62,505.22 369.56,509.77 374.5,513.83 379.52,517.46 384.68,520.7 390.05,523.61 395.66,526.23 401.52,528.58 407.59,530.68 413.79,532.54 419.97,534.15 425.92,535.51 431.39,536.62 436.13,537.48 439.94,538.09 442.7,538.5 444.43,538.73 445.3,538.83 445.55,538.86 445.56,538.86 601.76,538.86 601.76,405.72 445.56,405.72 445.49,405.71 445,405.66 443.77,405.51 441.58,405.2 438.35,404.71 434.1,403.99 429,403.02 423.28,401.79 "
     style="fill:#77aadd;fill-opacity:0.5;stroke:none;stroke-width:1.07"
     id="polygon6"
     clip-path="url(#clipPath117)"
     transform="translate(0,-31.5)" />
  <polygon
     points="325.45,118.63 320.81,124.01 316.05,129.6 311.19,135.37 306.23,141.28 301.21,147.32 296.14,153.44 291.04,159.62 285.93,165.8 280.84,171.96 275.78,178.06 270.78,184.06 265.86,189.92 261.03,195.63 256.31,201.15 251.71,206.46 247.23,211.54 242.88,216.38 238.67,220.98 234.58,225.32 230.61,229.4 226.76,233.23 224.29,235.6 219.06,240.38 213.97,244.68 208.95,248.51 203.93,251.92 198.83,254.97 193.58,257.69 188.11,260.12 182.38,262.31 176.4,264.27 170.21,266.02 163.91,267.55 157.66,268.88 151.69,269.99 146.27,270.89 141.65,271.57 138.03,272.04 135.5,272.34 133.99,272.51 133.32,272.57 133.18,272.58 -23.02,272.58 -23.02,309.57 133.18,309.57 133.25,309.56 133.76,309.51 135.04,309.38 137.32,309.11 140.68,308.68 145.07,308.05 150.32,307.21 156.18,306.15 162.39,304.88 168.69,303.39 174.92,301.69 180.96,299.79 186.75,297.66 192.28,295.28 197.58,292.63 202.71,289.67 207.75,286.35 212.76,282.62 217.82,278.45 223.01,273.78 224.29,272.58 228.08,268.91 231.98,264.99 235.98,260.82 240.12,256.4 244.38,251.72 248.77,246.79 253.29,241.63 257.93,236.24 262.69,230.65 267.55,224.89 272.5,218.97 277.53,212.94 282.6,206.81 287.7,200.64 292.81,194.46 297.9,188.3 302.96,182.2 307.96,176.2 312.88,170.33 317.71,164.63 322.43,159.11 327.03,153.8 331.51,148.71 335.86,143.87 340.07,139.28 344.16,134.94 348.13,130.86 351.98,127.02 354.45,124.65 359.68,119.87 364.77,115.58 369.78,111.75 374.81,108.33 379.91,105.29 385.16,102.57 390.63,100.13 396.36,97.95 402.34,95.99 408.53,94.24 414.83,92.7 421.08,91.37 427.05,90.26 432.47,89.37 437.09,88.69 440.71,88.21 443.24,87.91 444.75,87.75 445.42,87.68 445.56,87.67 601.76,87.67 601.76,50.69 445.56,50.69 445.49,50.7 444.98,50.74 443.7,50.88 441.42,51.14 438.06,51.57 433.67,52.2 428.42,53.04 422.56,54.1 416.35,55.38 410.05,56.87 403.81,58.56 397.78,60.47 391.99,62.6 386.46,64.97 381.16,67.62 376.03,70.58 370.99,73.9 365.98,77.63 360.92,81.81 355.73,86.47 354.45,87.67 350.66,91.34 346.76,95.26 342.76,99.43 338.62,103.86 334.36,108.54 329.97,113.47 "
     style="fill:#000000;fill-opacity:0.5;stroke:none;stroke-width:1.07"
     id="polygon7"
     clip-path="url(#clipPath116)"
     transform="translate(0,-31.5)" />
  <polygon
     points="237.02,269.69 232.75,273.27 228.61,276.63 224.58,279.76 224.29,279.98 219,283.85 213.84,287.33 208.76,290.42 203.67,293.17 198.49,295.62 193.15,297.81 187.59,299.77 181.77,301.52 175.68,303.09 169.39,304.48 163,305.71 156.69,306.76 150.72,307.63 145.35,308.32 140.86,308.84 137.41,309.2 135.08,309.41 133.77,309.52 133.25,309.56 133.18,309.57 -23.02,309.57 -23.02,316.96 133.18,316.96 133.26,316.96 133.79,316.92 135.11,316.81 137.47,316.59 140.94,316.23 145.46,315.71 150.84,315.01 156.82,314.13 163.13,313.08 169.52,311.85 175.81,310.45 181.89,308.88 187.71,307.12 193.27,305.16 198.6,302.97 203.78,300.51 208.86,297.75 213.95,294.65 219.11,291.17 224.29,287.38 228.31,284.26 232.44,280.93 236.7,277.36 241.1,273.57 245.64,269.55 250.33,265.32 255.17,260.87 260.14,256.24 265.23,251.43 270.43,246.47 275.72,241.4 281.07,236.23 286.47,231.02 291.87,225.78 297.27,220.56 302.63,215.39 307.92,210.31 313.13,205.34 318.23,200.52 323.21,195.87 328.05,191.42 332.76,187.16 337.31,183.13 341.72,179.32 345.99,175.74 350.13,172.39 354.16,169.26 354.45,169.03 359.74,165.16 364.9,161.69 369.98,158.6 375.07,155.84 380.25,153.39 385.59,151.2 391.15,149.25 396.97,147.49 403.06,145.92 409.35,144.53 415.74,143.31 422.05,142.26 428.02,141.38 433.38,140.69 437.88,140.17 441.33,139.82 443.66,139.6 444.97,139.49 445.49,139.45 445.56,139.45 601.76,139.45 601.76,132.05 445.56,132.05 445.48,132.06 444.95,132.1 443.63,132.21 441.27,132.43 437.8,132.79 433.28,133.31 427.9,134 421.92,134.88 415.61,135.94 409.22,137.16 402.93,138.56 396.85,140.13 391.03,141.89 385.47,143.85 380.14,146.04 374.96,148.5 369.87,151.26 364.79,154.36 359.63,157.84 354.45,161.64 350.43,164.75 346.3,168.09 342.04,171.65 337.64,175.44 333.1,179.46 328.41,183.7 323.57,188.14 318.6,192.78 313.51,197.59 308.31,202.54 303.02,207.62 297.67,212.78 292.27,218 286.87,223.23 281.47,228.45 276.11,233.62 270.82,238.7 265.61,243.67 260.51,248.49 255.53,253.14 250.69,257.6 245.98,261.85 241.43,265.88 "
     style="fill:#000000;fill-opacity:0.5;stroke:none;stroke-width:1.07"
     id="polygon8"
     clip-path="url(#clipPath115)"
     transform="translate(0,-31.5)" />
  <polygon
     points="133.18,324.36 -23.02,324.36 -23.02,331.76 133.18,331.76 133.26,331.76 133.82,331.78 135.23,331.83 137.72,331.92 141.36,332.08 146.09,332.31 151.68,332.62 157.85,333 164.32,333.47 170.84,334 177.22,334.61 183.36,335.3 189.23,336.07 194.84,336.93 200.23,337.89 205.47,338.98 210.65,340.2 215.86,341.58 221.17,343.12 224.29,344.08 228.81,345.55 233.48,347.13 238.32,348.84 243.34,350.66 248.54,352.6 253.92,354.65 259.48,356.8 265.2,359.05 271.05,361.38 277.01,363.76 283.05,366.19 289.12,368.64 295.19,371.09 301.23,373.52 307.2,375.91 313.06,378.24 318.79,380.49 324.36,382.66 329.76,384.72 334.98,386.67 340.01,388.5 344.87,390.21 349.55,391.8 354.08,393.28 354.45,393.39 359.85,395.04 365.11,396.51 370.3,397.82 375.5,398.98 380.79,400.01 386.27,400.93 391.98,401.75 397.97,402.48 404.22,403.14 410.68,403.72 417.2,404.22 423.58,404.65 429.54,405 434.79,405.27 439.07,405.47 442.23,405.6 444.23,405.68 445.24,405.71 445.55,405.72 445.56,405.72 601.76,405.72 601.76,398.33 445.56,398.33 445.48,398.32 444.92,398.31 443.51,398.26 441.02,398.16 437.38,398 432.65,397.77 427.06,397.46 420.89,397.08 414.42,396.62 407.9,396.08 401.52,395.47 395.37,394.78 389.51,394.01 383.9,393.15 378.51,392.19 373.27,391.1 368.09,389.88 362.88,388.51 357.57,386.96 354.45,386 349.93,384.53 345.26,382.95 340.42,381.25 335.4,379.42 330.2,377.49 324.82,375.43 319.26,373.28 313.54,371.03 307.69,368.71 301.73,366.32 295.69,363.89 289.62,361.44 283.55,358.99 277.51,356.56 271.54,354.17 265.68,351.84 259.95,349.59 254.38,347.43 248.98,345.37 243.76,343.42 238.73,341.58 233.87,339.87 229.19,338.28 224.66,336.8 224.29,336.69 218.89,335.04 213.63,333.57 208.44,332.26 203.24,331.1 197.95,330.07 192.47,329.15 186.76,328.33 180.77,327.6 174.52,326.95 168.06,326.37 161.54,325.86 155.16,325.43 149.2,325.08 143.95,324.81 139.67,324.61 136.51,324.48 134.51,324.4 133.5,324.37 133.19,324.36 "
     style="fill:#000000;fill-opacity:0.5;stroke:none;stroke-width:1.07"
     id="polygon9"
     clip-path="url(#clipPath114)"
     transform="translate(0,-31.5)" />
  <polygon
     points="156.02,314.82 150.05,315.5 144.73,316.04 140.32,316.43 137,316.7 134.81,316.86 133.64,316.94 133.22,316.96 133.18,316.96 -23.02,316.96 -23.02,324.36 133.18,324.36 133.26,324.36 133.8,324.32 135.16,324.23 137.58,324.05 141.13,323.76 145.73,323.34 151.21,322.77 157.27,322.06 163.65,321.21 170.1,320.22 176.43,319.09 182.54,317.82 188.38,316.4 193.96,314.81 199.32,313.03 204.52,311.03 209.65,308.79 214.79,306.27 220.01,303.43 224.29,300.94 228.5,298.35 232.83,295.57 237.31,292.59 241.95,289.42 246.74,286.05 251.69,282.49 256.8,278.75 262.05,274.86 267.44,270.82 272.93,266.66 278.5,262.42 284.13,258.11 289.79,253.77 295.45,249.43 301.08,245.13 306.64,240.89 312.12,236.75 317.48,232.74 322.71,228.86 327.8,225.15 332.73,221.62 337.5,218.28 342.11,215.13 346.56,212.19 350.88,209.44 354.45,207.25 359.79,204.16 364.99,201.39 370.12,198.92 375.26,196.73 380.49,194.78 385.88,193.04 391.51,191.49 397.41,190.1 403.57,188.86 409.93,187.76 416.38,186.79 422.72,185.97 428.69,185.29 434.01,184.75 438.42,184.36 441.74,184.09 443.93,183.93 445.1,183.85 445.52,183.83 445.56,183.83 601.76,183.83 601.76,176.43 445.56,176.43 445.48,176.43 444.94,176.47 443.58,176.56 441.16,176.74 437.61,177.03 433.01,177.45 427.53,178.02 421.47,178.73 415.09,179.58 408.64,180.57 402.31,181.7 396.2,182.97 390.36,184.39 384.78,185.98 379.42,187.76 374.22,189.76 369.09,192 363.95,194.52 358.73,197.36 354.45,199.85 350.24,202.44 345.9,205.22 341.43,208.2 336.79,211.37 332,214.74 327.05,218.3 321.94,222.04 316.69,225.93 311.3,229.97 305.81,234.13 300.24,238.37 294.61,242.68 288.95,247.02 283.29,251.36 277.66,255.66 272.1,259.9 266.62,264.04 261.26,268.05 256.03,271.93 250.94,275.64 246.01,279.17 241.24,282.51 236.63,285.66 232.18,288.6 227.86,291.35 224.29,293.54 218.95,296.63 213.75,299.4 208.62,301.87 203.48,304.06 198.25,306.01 192.86,307.75 187.23,309.3 181.33,310.69 175.17,311.93 168.81,313.03 162.36,314 "
     style="fill:#000000;fill-opacity:0.5;stroke:none;stroke-width:1.07"
     id="polygon10"
     clip-path="url(#clipPath113)"
     transform="translate(0,-31.5)" />
  <polygon
     points="141.46,353.88 146.22,353.83 151.86,353.77 158.08,353.69 164.58,353.6 171.12,353.49 177.52,353.37 183.68,353.23 189.56,353.08 195.17,352.9 200.57,352.71 205.83,352.49 211.04,352.24 216.27,351.96 221.62,351.65 224.29,351.48 228.96,351.18 233.79,350.85 238.8,350.5 244.01,350.12 249.41,349.71 255,349.29 260.78,348.84 266.72,348.37 272.79,347.88 278.97,347.39 285.22,346.88 291.5,346.38 297.76,345.87 303.97,345.37 310.08,344.89 316.07,344.41 321.9,343.96 327.56,343.52 333.02,343.11 338.28,342.72 343.36,342.36 348.24,342.02 352.96,341.71 354.45,341.62 359.87,341.29 365.16,340.99 370.37,340.73 375.59,340.5 380.91,340.29 386.41,340.11 392.16,339.94 398.18,339.8 404.47,339.67 410.96,339.55 417.51,339.45 423.9,339.36 429.86,339.29 435.08,339.24 439.32,339.2 442.4,339.18 444.34,339.16 445.29,339.16 445.55,339.15 445.56,339.15 601.76,339.15 601.76,316.96 445.56,316.96 445.48,316.96 444.91,316.97 443.48,316.98 440.97,317 437.28,317.03 432.52,317.08 426.88,317.14 420.66,317.22 414.16,317.31 407.62,317.42 401.22,317.54 395.06,317.68 389.18,317.84 383.57,318.01 378.17,318.2 372.91,318.42 367.7,318.67 362.47,318.95 357.12,319.26 354.45,319.43 349.78,319.73 344.95,320.06 339.94,320.41 334.73,320.79 329.33,321.2 323.74,321.63 317.96,322.07 312.02,322.54 305.95,323.03 299.77,323.52 293.52,324.03 287.24,324.53 280.98,325.04 274.77,325.54 268.66,326.02 262.67,326.5 256.84,326.95 251.18,327.39 245.72,327.8 240.46,328.19 235.38,328.55 230.5,328.89 225.78,329.2 224.29,329.29 218.87,329.62 213.58,329.92 208.37,330.18 203.15,330.41 197.83,330.62 192.33,330.8 186.58,330.97 180.56,331.11 174.27,331.24 167.78,331.36 161.23,331.46 154.84,331.55 148.88,331.62 143.66,331.67 139.42,331.71 136.34,331.73 134.4,331.75 133.45,331.76 133.19,331.76 133.18,331.76 -23.02,331.76 -23.02,353.95 133.18,353.95 133.26,353.95 133.83,353.94 135.25,353.93 137.77,353.91 "
     style="fill:#9e0142;fill-opacity:0.5;stroke:none;stroke-width:1.07"
     id="polygon11"
     clip-path="url(#clipPath112)"
     transform="translate(0,-31.5)" />
  <polygon
     points="287.58,444.59 282.23,439.2 276.92,433.86 271.66,428.6 266.49,423.45 261.41,418.45 256.46,413.62 251.63,408.98 246.95,404.55 242.4,400.34 238,396.36 233.74,392.61 229.61,389.09 225.59,385.8 224.29,384.77 219.01,380.74 213.86,377.13 208.79,373.91 203.71,371.05 198.55,368.5 193.22,366.22 187.67,364.18 181.86,362.36 175.79,360.72 169.51,359.27 163.14,357.99 156.84,356.9 150.87,355.99 145.5,355.26 140.98,354.72 137.5,354.34 135.14,354.11 133.8,354 133.26,353.95 133.18,353.95 -23.02,353.95 -23.02,361.34 133.18,361.34 133.26,361.35 133.78,361.39 135.1,361.51 137.45,361.73 140.9,362.1 145.4,362.64 150.76,363.37 156.72,364.28 163.01,365.37 169.39,366.64 175.67,368.09 181.75,369.72 187.56,371.54 193.11,373.58 198.44,375.85 203.61,378.39 208.69,381.25 213.76,384.46 218.91,388.06 224.19,392.08 224.29,392.16 228.27,395.37 232.36,398.81 236.58,402.49 240.93,406.39 245.43,410.53 250.07,414.89 254.85,419.46 259.76,424.23 264.8,429.18 269.94,434.28 275.17,439.51 280.47,444.83 285.81,450.2 291.16,455.61 296.51,461 301.82,466.34 307.08,471.6 312.25,476.75 317.33,481.75 322.28,486.58 327.11,491.22 331.79,495.65 336.34,499.86 340.74,503.85 345,507.6 349.13,511.11 353.15,514.4 354.45,515.44 359.73,519.46 364.88,523.07 369.95,526.29 375.03,529.16 380.19,531.71 385.52,533.98 391.07,536.02 396.88,537.85 402.95,539.48 409.23,540.93 415.6,542.21 421.9,543.3 427.87,544.22 433.24,544.94 437.76,545.49 441.24,545.86 443.6,546.09 444.94,546.21 445.48,546.25 445.56,546.26 601.76,546.26 601.76,538.86 445.56,538.86 445.48,538.85 444.96,538.81 443.64,538.7 441.29,538.47 437.84,538.1 433.34,537.56 427.98,536.84 422.02,535.93 415.73,534.83 409.35,533.56 403.07,532.11 396.99,530.48 391.18,528.66 385.63,526.63 380.3,524.36 375.13,521.81 370.05,518.95 364.98,515.74 359.83,512.14 354.55,508.12 354.45,508.04 350.47,504.83 346.38,501.39 342.16,497.72 337.81,493.81 333.31,489.68 328.67,485.32 323.89,480.74 318.98,475.97 313.94,471.02 308.8,465.92 303.57,460.7 298.27,455.38 292.93,450 "
     style="fill:#d53e4f;fill-opacity:0.5;stroke:none;stroke-width:1.07"
     id="polygon12"
     clip-path="url(#clipPath111)"
     transform="translate(0,-31.5)" />
  <polygon
     points="288.28,303.31 282.98,308.87 277.71,314.38 272.5,319.82 267.36,325.14 262.31,330.32 257.38,335.33 252.58,340.15 247.9,344.76 243.37,349.15 238.98,353.3 234.73,357.22 230.61,360.9 226.6,364.35 224.29,366.27 219.02,370.45 213.88,374.2 208.82,377.54 203.75,380.52 198.6,383.17 193.29,385.53 187.75,387.65 181.96,389.55 175.91,391.25 169.65,392.76 163.28,394.09 157,395.23 151.03,396.18 145.64,396.94 141.1,397.51 137.6,397.9 135.2,398.15 133.83,398.27 133.27,398.32 133.18,398.33 -23.02,398.33 -23.02,420.52 133.18,420.52 133.25,420.51 133.78,420.47 135.09,420.35 137.42,420.11 140.86,419.73 145.34,419.17 150.68,418.42 156.62,417.48 162.9,416.35 169.26,415.04 175.53,413.54 181.6,411.85 187.41,409.96 192.96,407.86 198.28,405.51 203.44,402.88 208.51,399.92 213.57,396.61 218.7,392.88 223.96,388.73 224.29,388.46 228.23,385.16 232.28,381.61 236.45,377.84 240.76,373.82 245.21,369.57 249.8,365.09 254.53,360.39 259.39,355.49 264.37,350.41 269.45,345.17 274.62,339.79 279.87,334.32 285.15,328.79 290.46,323.22 295.76,317.66 301.03,312.15 306.24,306.71 311.38,301.39 316.43,296.21 321.36,291.2 326.16,286.38 330.84,281.77 335.37,277.38 339.76,273.23 344.01,269.31 348.13,265.63 352.14,262.18 354.45,260.26 359.72,256.08 364.86,252.33 369.92,248.99 374.99,246.01 380.14,243.36 385.45,241 390.99,238.88 396.78,236.98 402.83,235.28 409.09,233.77 415.46,232.44 421.74,231.3 427.71,230.35 433.1,229.59 437.64,229.02 441.14,228.63 443.54,228.38 444.91,228.26 445.47,228.21 445.56,228.21 601.76,228.21 601.76,206.02 445.56,206.02 445.48,206.02 444.96,206.07 443.65,206.18 441.32,206.42 437.88,206.8 433.4,207.36 428.06,208.11 422.12,209.05 415.84,210.18 409.48,211.5 403.21,213 397.14,214.68 391.33,216.57 385.78,218.67 380.46,221.02 375.3,223.65 370.23,226.61 365.17,229.93 360.04,233.65 354.78,237.8 354.45,238.07 350.51,241.38 346.46,244.92 342.29,248.69 337.98,252.71 333.53,256.96 328.94,261.44 324.21,266.14 319.35,271.04 314.37,276.12 309.29,281.36 304.12,286.74 298.87,292.21 293.59,297.74 "
     style="fill:#f46d43;fill-opacity:0.5;stroke:none;stroke-width:1.07"
     id="polygon13"
     clip-path="url(#clipPath110)"
     transform="translate(0,-31.5)" />
  <polygon
     points="288.28,325.5 282.98,331.06 277.71,336.57 272.5,342.01 267.36,347.33 262.31,352.51 257.38,357.52 252.58,362.34 247.9,366.95 243.37,371.34 238.98,375.49 234.73,379.41 230.61,383.09 226.6,386.54 224.29,388.46 219.02,392.64 213.88,396.39 208.82,399.73 203.75,402.71 198.6,405.36 193.29,407.72 187.75,409.84 181.96,411.74 175.91,413.44 169.65,414.95 163.28,416.28 157,417.42 151.03,418.37 145.64,419.13 141.1,419.7 137.6,420.09 135.2,420.34 133.83,420.46 133.27,420.51 133.18,420.52 -23.02,420.52 -23.02,501.88 133.18,501.88 133.25,501.87 133.78,501.83 135.09,501.71 137.42,501.47 140.86,501.09 145.34,500.53 150.68,499.78 156.62,498.84 162.9,497.71 169.26,496.4 175.53,494.9 181.6,493.21 187.41,491.32 192.96,489.22 198.28,486.87 203.44,484.24 208.51,481.29 213.57,477.97 218.7,474.24 223.96,470.09 224.29,469.83 228.23,466.52 232.28,462.98 236.45,459.2 240.76,455.18 245.21,450.93 249.8,446.45 254.53,441.75 259.39,436.85 264.37,431.77 269.45,426.53 274.62,421.16 279.87,415.68 285.15,410.15 290.46,404.58 295.76,399.02 301.03,393.51 306.24,388.08 311.38,382.75 316.43,377.57 321.36,372.56 326.16,367.74 330.84,363.13 335.37,358.74 339.76,354.59 344.01,350.67 348.13,346.99 352.14,343.55 354.45,341.62 359.72,337.44 364.86,333.69 369.92,330.35 374.99,327.38 380.14,324.73 385.45,322.36 390.99,320.24 396.78,318.34 402.83,316.64 409.09,315.13 415.46,313.81 421.74,312.66 427.71,311.71 433.1,310.95 437.64,310.38 441.14,309.99 443.54,309.75 444.91,309.62 445.47,309.57 445.56,309.57 601.76,309.57 601.76,228.21 445.56,228.21 445.48,228.21 444.96,228.25 443.65,228.37 441.32,228.61 437.88,228.99 433.4,229.55 428.06,230.3 422.12,231.24 415.84,232.37 409.48,233.68 403.21,235.18 397.14,236.87 391.33,238.76 385.78,240.86 380.46,243.21 375.3,245.84 370.23,248.8 365.17,252.12 360.04,255.84 354.78,259.99 354.45,260.26 350.51,263.57 346.46,267.11 342.29,270.88 337.98,274.9 333.53,279.15 328.94,283.63 324.21,288.33 319.35,293.23 314.37,298.31 309.29,303.55 304.12,308.93 298.87,314.4 293.59,319.93 "
     style="fill:#f46d43;fill-opacity:0.5;stroke:none;stroke-width:1.07"
     id="polygon14"
     clip-path="url(#clipPath109)"
     transform="translate(0,-31.5)" />
  <polygon
     points="155.79,499.99 149.82,500.59 144.52,501.07 140.14,501.42 136.87,501.65 134.73,501.79 133.6,501.86 133.21,501.88 133.18,501.88 -23.02,501.88 -23.02,524.07 133.18,524.07 133.26,524.06 133.81,524.03 135.18,523.95 137.62,523.79 141.19,523.53 145.83,523.14 151.33,522.63 157.43,521.99 163.83,521.23 170.3,520.33 176.65,519.31 182.76,518.17 188.61,516.89 194.2,515.45 199.56,513.85 204.78,512.05 209.92,510.02 215.08,507.74 220.33,505.18 224.29,503.11 228.57,500.75 232.99,498.22 237.56,495.5 242.28,492.59 247.17,489.51 252.23,486.25 257.45,482.84 262.81,479.27 268.31,475.57 273.91,471.77 279.6,467.89 285.34,463.96 291.1,460.01 296.86,456.06 302.57,452.16 308.21,448.32 313.75,444.58 319.17,440.96 324.45,437.48 329.57,434.16 334.53,431.01 339.32,428.03 343.95,425.24 348.42,422.63 352.76,420.2 354.45,419.28 359.81,416.51 365.02,414.02 370.17,411.81 375.32,409.85 380.57,408.1 385.99,406.55 391.64,405.16 397.56,403.91 403.74,402.8 410.13,401.81 416.6,400.95 422.95,400.22 428.92,399.61 434.22,399.14 438.6,398.79 441.87,398.55 444.01,398.41 445.14,398.35 445.53,398.33 445.56,398.33 601.76,398.33 601.76,376.14 445.56,376.14 445.48,376.14 444.93,376.17 443.56,376.25 441.12,376.41 437.55,376.68 432.91,377.06 427.41,377.57 421.31,378.21 414.9,378.98 408.44,379.87 402.09,380.89 395.98,382.03 390.13,383.32 384.54,384.75 379.18,386.35 373.96,388.15 368.82,390.18 363.66,392.46 358.41,395.02 354.45,397.09 350.17,399.45 345.75,401.99 341.18,404.71 336.46,407.61 331.57,410.69 326.51,413.95 321.29,417.37 315.93,420.93 310.43,424.63 304.83,428.43 299.14,432.31 293.4,436.24 287.64,440.2 281.88,444.14 276.17,448.04 270.53,451.88 264.99,455.62 259.57,459.24 254.29,462.72 249.17,466.04 244.21,469.2 239.42,472.17 234.79,474.97 230.32,477.57 225.98,480 224.29,480.92 218.93,483.69 213.72,486.18 208.57,488.39 203.42,490.35 198.17,492.1 192.75,493.66 187.1,495.05 181.18,496.29 175,497.4 168.61,498.39 162.14,499.25 "
     style="fill:#f46d43;fill-opacity:0.5;stroke:none;stroke-width:1.07"
     id="polygon15"
     clip-path="url(#clipPath108)"
     transform="translate(0,-31.5)" />
  <polygon
     points="325.45,207.39 320.81,212.77 316.05,218.36 311.19,224.13 306.23,230.04 301.21,236.08 296.14,242.2 291.04,248.37 285.93,254.56 280.84,260.72 275.78,266.82 270.78,272.81 265.86,278.68 261.03,284.39 256.31,289.91 251.71,295.22 247.23,300.3 242.88,305.14 238.67,309.73 234.58,314.07 230.61,318.16 226.76,321.99 224.29,324.36 219.06,329.14 213.97,333.43 208.95,337.27 203.93,340.68 198.83,343.72 193.58,346.44 188.11,348.88 182.38,351.07 176.4,353.03 170.21,354.77 163.91,356.31 157.66,357.64 151.69,358.75 146.27,359.65 141.65,360.33 138.03,360.8 135.5,361.1 133.99,361.26 133.32,361.33 133.18,361.34 -23.02,361.34 -23.02,398.33 133.18,398.33 133.25,398.32 133.76,398.27 135.04,398.14 137.32,397.87 140.68,397.44 145.07,396.81 150.32,395.97 156.18,394.91 162.39,393.63 168.69,392.15 174.92,390.45 180.96,388.54 186.75,386.41 192.28,384.04 197.58,381.39 202.71,378.43 207.75,375.11 212.76,371.38 217.82,367.2 223.01,362.54 224.29,361.34 228.08,357.67 231.98,353.75 235.98,349.58 240.12,345.15 244.38,340.47 248.77,335.55 253.29,330.38 257.93,325 262.69,319.41 267.55,313.65 272.5,307.73 277.53,301.69 282.6,295.57 287.7,289.4 292.81,283.21 297.9,277.05 302.96,270.96 307.96,264.96 312.88,259.09 317.71,253.38 322.43,247.86 327.03,242.56 331.51,237.47 335.86,232.63 340.07,228.04 344.16,223.7 348.13,219.62 351.98,215.78 354.45,213.41 359.68,208.63 364.77,204.34 369.78,200.51 374.81,197.09 379.91,194.05 385.16,191.33 390.63,188.89 396.36,186.7 402.34,184.74 408.53,183 414.83,181.46 421.08,180.13 427.05,179.02 432.47,178.13 437.09,177.45 440.71,176.97 443.24,176.67 444.75,176.51 445.42,176.44 445.56,176.43 601.76,176.43 601.76,139.45 445.56,139.45 445.49,139.45 444.98,139.5 443.7,139.64 441.42,139.9 438.06,140.33 433.67,140.96 428.42,141.8 422.56,142.86 416.35,144.14 410.05,145.63 403.81,147.32 397.78,149.23 391.99,151.36 386.46,153.73 381.16,156.38 376.03,159.34 370.99,162.66 365.98,166.39 360.92,170.57 355.73,175.23 354.45,176.43 350.66,180.1 346.76,184.02 342.76,188.19 338.62,192.62 334.36,197.3 329.97,202.23 "
     style="fill:#f46d43;fill-opacity:0.5;stroke:none;stroke-width:1.07"
     id="polygon16"
     clip-path="url(#clipPath107)"
     transform="translate(0,-31.5)" />
  <polygon
     points="141.42,539.06 146.18,539.2 151.8,539.38 158,539.61 164.49,539.89 171.03,540.22 177.42,540.59 183.57,541 189.45,541.47 195.06,541.99 200.46,542.57 205.71,543.22 210.91,543.96 216.14,544.8 221.47,545.73 224.29,546.26 228.91,547.15 233.68,548.13 238.63,549.17 243.77,550.3 249.1,551.49 254.62,552.76 260.32,554.08 266.18,555.47 272.18,556.9 278.28,558.37 284.46,559.86 290.66,561.36 296.86,562.86 303.01,564.35 309.07,565.8 315.02,567.21 320.81,568.58 326.44,569.88 331.88,571.11 337.13,572.28 342.19,573.37 347.06,574.39 351.77,575.33 354.45,575.84 359.87,576.83 365.14,577.72 370.34,578.5 375.56,579.2 380.87,579.82 386.36,580.37 392.1,580.87 398.11,581.31 404.39,581.7 410.87,582.04 417.4,582.35 423.79,582.6 429.75,582.81 434.98,582.98 439.23,583.09 442.34,583.17 444.3,583.21 445.27,583.23 445.55,583.24 445.56,583.24 601.76,583.24 601.76,568.45 445.56,568.45 445.48,568.44 444.91,568.43 443.49,568.4 440.99,568.34 437.31,568.25 432.56,568.11 426.94,567.92 420.74,567.69 414.25,567.41 407.71,567.09 401.32,566.72 395.17,566.31 389.29,565.84 383.68,565.32 378.28,564.74 373.03,564.08 367.83,563.34 362.6,562.51 357.27,561.57 354.45,561.05 349.83,560.15 345.06,559.18 340.11,558.13 334.97,557.01 329.64,555.81 324.12,554.55 318.42,553.22 312.56,551.84 306.56,550.4 300.46,548.94 294.28,547.45 288.08,545.94 281.88,544.44 275.73,542.96 269.67,541.51 263.72,540.09 257.93,538.73 252.3,537.43 246.86,536.19 241.61,535.03 236.55,533.94 231.68,532.92 226.97,531.98 224.29,531.46 218.87,530.47 213.6,529.59 208.4,528.8 203.18,528.1 197.87,527.49 192.38,526.93 186.64,526.44 180.63,526 174.35,525.61 167.87,525.26 161.34,524.96 154.95,524.7 148.99,524.49 143.76,524.33 139.51,524.21 136.4,524.14 134.44,524.09 133.47,524.07 133.19,524.07 133.18,524.07 -23.02,524.07 -23.02,538.86 133.18,538.86 133.26,538.86 133.83,538.87 135.25,538.9 137.75,538.96 "
     style="fill:#f46d43;fill-opacity:0.5;stroke:none;stroke-width:1.07"
     id="polygon17"
     clip-path="url(#clipPath106)"
     transform="translate(0,-31.5)" />
  <polygon
     points="320.08,324.7 324.07,317.28 327.97,310.11 331.78,303.21 335.49,296.58 339.11,290.25 342.63,284.22 346.07,278.48 349.41,273.04 352.69,267.89 354.45,265.19 359.2,258.21 363.84,251.87 368.41,246.15 372.97,241 377.56,236.36 382.26,232.18 387.11,228.4 392.15,224.97 397.4,221.87 402.86,219.06 408.5,216.54 414.23,214.29 419.92,212.31 425.43,210.62 430.54,209.22 435.07,208.1 438.84,207.26 441.73,206.68 443.74,206.31 444.92,206.11 445.44,206.03 445.56,206.02 601.76,206.02 601.76,183.83 445.56,183.83 445.51,183.83 445.12,183.89 444.14,184.05 442.37,184.37 439.73,184.89 436.19,185.65 431.86,186.69 426.89,188.02 421.47,189.63 415.81,191.52 410.08,193.7 404.41,196.15 398.89,198.88 393.58,201.9 388.48,205.23 383.58,208.91 378.85,212.97 374.23,217.48 369.67,222.48 365.11,228.04 360.5,234.2 355.78,241.01 354.45,243 351.22,247.99 347.91,253.27 344.53,258.85 341.05,264.72 337.49,270.89 333.82,277.35 330.07,284.1 326.22,291.13 322.28,298.41 318.25,305.95 314.14,313.7 309.96,321.65 305.72,329.77 301.43,338.02 297.1,346.38 292.75,354.8 288.38,363.25 284.02,371.7 279.68,380.09 275.37,388.41 271.1,396.6 266.88,404.65 262.74,412.51 258.66,420.17 254.67,427.6 250.77,434.77 246.96,441.67 243.25,448.29 239.63,454.62 236.11,460.66 232.67,466.39 229.33,471.84 226.05,476.99 224.29,479.69 219.54,486.67 214.9,493.01 210.33,498.73 205.77,503.88 201.18,508.51 196.48,512.7 191.63,516.48 186.59,519.9 181.34,523 175.87,525.81 170.24,528.34 164.51,530.59 158.82,532.56 153.31,534.25 148.2,535.66 143.67,536.77 139.9,537.61 137.01,538.2 135,538.56 133.82,538.76 133.3,538.84 133.18,538.86 -23.02,538.86 -23.02,561.05 133.18,561.05 133.23,561.04 133.62,560.98 134.6,560.82 136.37,560.51 139.01,559.99 142.55,559.22 146.88,558.18 151.85,556.86 157.27,555.25 162.93,553.35 168.66,551.18 174.33,548.73 179.85,546 185.16,542.98 190.26,539.65 195.16,535.97 199.89,531.9 204.51,527.39 209.07,522.39 213.63,516.84 218.24,510.67 222.96,503.87 224.29,501.88 227.52,496.89 230.83,491.6 234.21,486.03 237.69,480.16 241.25,473.99 244.92,467.53 248.67,460.78 252.52,453.75 256.46,446.46 260.49,438.93 264.6,431.18 268.78,423.23 273.02,415.11 277.31,406.85 281.64,398.5 285.99,390.08 290.36,381.62 294.72,373.18 299.06,364.78 303.37,356.47 307.64,348.27 311.86,340.23 316,332.36 "
     style="fill:#fee08b;fill-opacity:0.5;stroke:none;stroke-width:1.07"
     id="polygon18"
     clip-path="url(#clipPath105)"
     transform="translate(0,-31.5)" />
  <polygon
     points="141.46,568.45 146.23,568.45 151.87,568.45 158.09,568.45 164.59,568.45 171.13,568.45 177.53,568.45 183.69,568.45 189.57,568.45 195.19,568.45 200.59,568.45 205.85,568.45 211.05,568.45 216.29,568.45 221.64,568.45 224.29,568.45 228.97,568.45 233.81,568.45 238.83,568.45 244.04,568.45 249.44,568.45 255.05,568.45 260.83,568.45 266.78,568.45 272.87,568.45 279.06,568.45 285.32,568.45 291.61,568.45 297.88,568.45 304.09,568.45 310.21,568.45 316.21,568.45 322.04,568.45 327.7,568.45 333.16,568.45 338.43,568.45 343.5,568.45 348.39,568.45 353.12,568.45 354.45,568.45 359.88,568.45 365.16,568.45 370.37,568.45 375.59,568.45 380.91,568.45 386.42,568.45 392.16,568.45 398.19,568.45 404.48,568.45 410.97,568.45 417.52,568.45 423.91,568.45 429.87,568.45 435.09,568.45 439.33,568.45 442.41,568.45 444.34,568.45 445.29,568.45 445.55,568.45 445.56,568.45 601.76,568.45 601.76,561.05 445.56,561.05 445.48,561.05 444.91,561.05 443.48,561.05 440.97,561.05 437.28,561.05 432.51,561.05 426.87,561.05 420.65,561.05 414.15,561.05 407.61,561.05 401.21,561.05 395.05,561.05 389.17,561.05 383.55,561.05 378.15,561.05 372.89,561.05 367.69,561.05 362.45,561.05 357.1,561.05 354.45,561.05 349.77,561.05 344.93,561.05 339.91,561.05 334.7,561.05 329.29,561.05 323.69,561.05 317.91,561.05 311.96,561.05 305.87,561.05 299.68,561.05 293.42,561.05 287.13,561.05 280.86,561.05 274.65,561.05 268.53,561.05 262.53,561.05 256.7,561.05 251.04,561.05 245.58,561.05 240.31,561.05 235.23,561.05 230.35,561.05 225.62,561.05 224.29,561.05 218.86,561.05 213.58,561.05 208.37,561.05 203.15,561.05 197.83,561.05 192.32,561.05 186.57,561.05 180.55,561.05 174.26,561.05 167.77,561.05 161.22,561.05 154.83,561.05 148.87,561.05 143.65,561.05 139.41,561.05 136.33,561.05 134.4,561.05 133.45,561.05 133.19,561.05 133.18,561.05 -23.02,561.05 -23.02,568.45 133.18,568.45 133.26,568.45 133.83,568.45 135.26,568.45 137.77,568.45 "
     style="fill:#abdda4;fill-opacity:0.5;stroke:none;stroke-width:1.07"
     id="polygon19"
     clip-path="url(#clipPath104)"
     transform="translate(0,-31.5)" />
  <polygon
     points="141.45,583.14 146.22,583.07 151.85,582.98 158.06,582.86 164.57,582.72 171.11,582.56 177.51,582.37 183.66,582.17 189.54,581.93 195.15,581.67 200.55,581.38 205.81,581.05 211.02,580.68 216.25,580.26 221.6,579.79 224.29,579.54 228.95,579.09 233.78,578.6 238.78,578.07 243.97,577.5 249.36,576.89 254.94,576.25 260.7,575.58 266.63,574.88 272.69,574.16 278.86,573.41 285.1,572.66 291.37,571.9 297.62,571.15 303.82,570.4 309.92,569.67 315.9,568.96 321.73,568.27 327.38,567.62 332.84,567 338.1,566.42 343.17,565.88 348.05,565.38 352.77,564.91 354.45,564.75 359.87,564.25 365.15,563.81 370.36,563.42 375.58,563.07 380.9,562.76 386.4,562.48 392.15,562.23 398.17,562.01 404.46,561.82 410.95,561.64 417.49,561.49 423.88,561.37 429.84,561.26 435.07,561.18 439.3,561.12 442.39,561.08 444.33,561.06 445.28,561.05 445.55,561.05 445.56,561.05 601.76,561.05 601.76,546.26 445.56,546.26 445.48,546.26 444.91,546.26 443.49,546.28 440.97,546.31 437.29,546.36 432.52,546.43 426.89,546.52 420.67,546.63 414.17,546.77 407.63,546.94 401.23,547.12 395.08,547.33 389.2,547.56 383.59,547.82 378.18,548.12 372.93,548.45 367.72,548.82 362.49,549.23 357.14,549.7 354.45,549.95 349.79,550.41 344.96,550.9 339.96,551.43 334.77,552 329.38,552.6 323.8,553.24 318.04,553.91 312.11,554.61 306.05,555.34 299.88,556.08 293.64,556.83 287.37,557.59 281.12,558.35 274.92,559.1 268.82,559.83 262.84,560.54 257.01,561.22 251.36,561.87 245.9,562.49 240.64,563.07 235.57,563.62 230.69,564.12 225.97,564.59 224.29,564.75 218.87,565.24 213.59,565.69 208.38,566.08 203.16,566.43 197.84,566.74 192.34,567.01 186.59,567.26 180.57,567.48 174.28,567.68 167.79,567.85 161.25,568 154.86,568.13 148.9,568.23 143.67,568.32 139.44,568.37 136.35,568.41 134.41,568.43 133.46,568.44 133.19,568.45 133.18,568.45 -23.02,568.45 -23.02,583.24 133.18,583.24 133.26,583.24 133.83,583.23 135.25,583.22 137.77,583.19 "
     style="fill:#66c2a5;fill-opacity:0.5;stroke:none;stroke-width:1.07"
     id="polygon20"
     clip-path="url(#clipPath103)"
     transform="translate(0,-31.5)" />
  <polygon
     points="141.46,590.64 146.23,590.64 151.87,590.64 158.09,590.64 164.59,590.64 171.13,590.64 177.53,590.64 183.69,590.64 189.57,590.64 195.19,590.64 200.59,590.64 205.85,590.64 211.05,590.64 216.29,590.64 221.64,590.64 224.29,590.64 228.97,590.64 233.81,590.64 238.83,590.64 244.04,590.64 249.44,590.64 255.05,590.64 260.83,590.64 266.78,590.64 272.87,590.64 279.06,590.64 285.32,590.64 291.61,590.64 297.88,590.64 304.09,590.64 310.21,590.64 316.21,590.64 322.04,590.64 327.7,590.64 333.16,590.64 338.43,590.64 343.5,590.64 348.39,590.64 353.12,590.64 354.45,590.64 359.88,590.64 365.16,590.64 370.37,590.64 375.59,590.64 380.91,590.64 386.42,590.64 392.16,590.64 398.19,590.64 404.48,590.64 410.97,590.64 417.52,590.64 423.91,590.64 429.87,590.64 435.09,590.64 439.33,590.64 442.41,590.64 444.34,590.64 445.29,590.64 445.55,590.64 445.56,590.64 601.76,590.64 601.76,583.24 445.56,583.24 445.48,583.24 444.91,583.24 443.48,583.24 440.97,583.24 437.28,583.24 432.51,583.24 426.87,583.24 420.65,583.24 414.15,583.24 407.61,583.24 401.21,583.24 395.05,583.24 389.17,583.24 383.55,583.24 378.15,583.24 372.89,583.24 367.69,583.24 362.45,583.24 357.1,583.24 354.45,583.24 349.77,583.24 344.93,583.24 339.91,583.24 334.7,583.24 329.29,583.24 323.69,583.24 317.91,583.24 311.96,583.24 305.87,583.24 299.68,583.24 293.42,583.24 287.13,583.24 280.86,583.24 274.65,583.24 268.53,583.24 262.53,583.24 256.7,583.24 251.04,583.24 245.58,583.24 240.31,583.24 235.23,583.24 230.35,583.24 225.62,583.24 224.29,583.24 218.86,583.24 213.58,583.24 208.37,583.24 203.15,583.24 197.83,583.24 192.32,583.24 186.57,583.24 180.55,583.24 174.26,583.24 167.77,583.24 161.22,583.24 154.83,583.24 148.87,583.24 143.65,583.24 139.41,583.24 136.33,583.24 134.4,583.24 133.45,583.24 133.19,583.24 133.18,583.24 -23.02,583.24 -23.02,590.64 133.18,590.64 133.26,590.64 133.83,590.64 135.26,590.64 137.77,590.64 "
     style="fill:#5e4fa2;fill-opacity:0.5;stroke:none;stroke-width:1.07"
     id="polygon21"
     clip-path="url(#clipPath102)"
     transform="translate(0,-31.5)" />
  <polygon
     points="141.46,598.03 146.23,598.03 151.87,598.03 158.09,598.03 164.59,598.03 171.13,598.03 177.53,598.03 183.69,598.03 189.57,598.03 195.19,598.03 200.59,598.03 205.85,598.03 211.05,598.03 216.29,598.03 221.64,598.03 224.29,598.03 228.97,598.03 233.81,598.03 238.83,598.03 244.04,598.03 249.44,598.03 255.05,598.03 260.83,598.03 266.78,598.03 272.87,598.03 279.06,598.03 285.32,598.03 291.61,598.03 297.88,598.03 304.09,598.03 310.21,598.03 316.21,598.03 322.04,598.03 327.7,598.03 333.16,598.03 338.43,598.03 343.5,598.03 348.39,598.03 353.12,598.03 354.45,598.03 359.88,598.03 365.16,598.03 370.37,598.03 375.59,598.03 380.91,598.03 386.42,598.03 392.16,598.03 398.19,598.03 404.48,598.03 410.97,598.03 417.52,598.03 423.91,598.03 429.87,598.03 435.09,598.03 439.33,598.03 442.41,598.03 444.34,598.03 445.29,598.03 445.55,598.03 445.56,598.03 601.76,598.03 601.76,590.64 445.56,590.64 445.48,590.64 444.91,590.64 443.48,590.64 440.97,590.64 437.28,590.64 432.51,590.64 426.87,590.64 420.65,590.64 414.15,590.64 407.61,590.64 401.21,590.64 395.05,590.64 389.17,590.64 383.55,590.64 378.15,590.64 372.89,590.64 367.69,590.64 362.45,590.64 357.1,590.64 354.45,590.64 349.77,590.64 344.93,590.64 339.91,590.64 334.7,590.64 329.29,590.64 323.69,590.64 317.91,590.64 311.96,590.64 305.87,590.64 299.68,590.64 293.42,590.64 287.13,590.64 280.86,590.64 274.65,590.64 268.53,590.64 262.53,590.64 256.7,590.64 251.04,590.64 245.58,590.64 240.31,590.64 235.23,590.64 230.35,590.64 225.62,590.64 224.29,590.64 218.86,590.64 213.58,590.64 208.37,590.64 203.15,590.64 197.83,590.64 192.32,590.64 186.57,590.64 180.55,590.64 174.26,590.64 167.77,590.64 161.22,590.64 154.83,590.64 148.87,590.64 143.65,590.64 139.41,590.64 136.33,590.64 134.4,590.64 133.45,590.64 133.19,590.64 133.18,590.64 -23.02,590.64 -23.02,598.03 133.18,598.03 133.26,598.03 133.83,598.03 135.26,598.03 137.77,598.03 "
     style="fill:#fdae61;fill-opacity:0.5;stroke:none;stroke-width:1.07"
     id="polygon22"
     clip-path="url(#clipPath101)"
     transform="translate(0,-31.5)" />
  <polygon
     points="101.94,598.03 8.22,598.03 8.22,590.64 101.94,590.64 "
     style="fill:#ffffff;stroke-width:1.07;stroke-linecap:butt"
     id="polygon23"
     clip-path="url(#clipPath100)"
     transform="translate(0,-31.5)" />
  <polygon
     points="101.94,590.64 8.22,590.64 8.22,583.24 101.94,583.24 "
     style="fill:#ffffff;stroke-width:1.07;stroke-linecap:butt"
     id="polygon24"
     clip-path="url(#clipPath99)"
     transform="translate(0,-31.5)" />
  <polygon
     points="101.94,583.24 8.22,583.24 8.22,568.45 101.94,568.45 "
     style="fill:#ffffff;stroke-width:1.07;stroke-linecap:butt"
     id="polygon25"
     clip-path="url(#clipPath98)"
     transform="translate(0,-31.5)" />
  <polygon
     points="101.94,568.45 8.22,568.45 8.22,561.05 101.94,561.05 "
     style="fill:#ffffff;stroke-width:1.07;stroke-linecap:butt"
     id="polygon26"
     clip-path="url(#clipPath97)"
     transform="translate(0,-31.5)" />
  <polygon
     points="101.94,561.05 8.22,561.05 8.22,538.86 101.94,538.86 "
     style="fill:#ffffff;stroke-width:1.07;stroke-linecap:butt"
     id="polygon27"
     clip-path="url(#clipPath96)"
     transform="translate(0,-31.5)" />
  <polygon
     points="101.94,538.86 8.22,538.86 8.22,361.34 101.94,361.34 "
     style="fill:#ffffff;stroke-width:1.07;stroke-linecap:butt"
     id="polygon28"
     clip-path="url(#clipPath95)"
     transform="translate(0,-31.5)" />
  <polygon
     points="101.94,361.34 8.22,361.34 8.22,353.95 101.94,353.95 "
     style="fill:#ffffff;stroke-width:1.07;stroke-linecap:butt"
     id="polygon29"
     clip-path="url(#clipPath94)"
     transform="translate(0,-31.5)" />
  <polygon
     points="101.94,353.95 8.22,353.95 8.22,331.76 101.94,331.76 "
     style="fill:#ffffff;stroke-width:1.07;stroke-linecap:butt"
     id="polygon30"
     clip-path="url(#clipPath93)"
     transform="translate(0,-31.5)" />
  <polygon
     points="101.94,331.76 8.22,331.76 8.22,272.58 101.94,272.58 "
     style="fill:#ffffff;stroke-width:1.07;stroke-linecap:butt"
     id="polygon31"
     clip-path="url(#clipPath92)"
     transform="translate(0,-31.5)" />
  <polygon
     points="101.94,272.58 8.22,272.58 8.22,50.69 101.94,50.69 "
     style="fill:#ffffff;stroke-width:1.07;stroke-linecap:butt"
     id="polygon32"
     clip-path="url(#clipPath91)"
     transform="translate(0,-31.5)" />
  <polygon
     points="570.52,598.03 476.8,598.03 476.8,590.64 570.52,590.64 "
     style="fill:#ffffff;stroke-width:1.07;stroke-linecap:butt"
     id="polygon33"
     clip-path="url(#clipPath90)"
     transform="translate(0,-31.5)" />
  <polygon
     points="570.52,590.64 476.8,590.64 476.8,583.24 570.52,583.24 "
     style="fill:#ffffff;stroke-width:1.07;stroke-linecap:butt"
     id="polygon34"
     clip-path="url(#clipPath89)"
     transform="translate(0,-31.5)" />
  <polygon
     points="570.52,583.24 476.8,583.24 476.8,568.45 570.52,568.45 "
     style="fill:#ffffff;stroke-width:1.07;stroke-linecap:butt"
     id="polygon35"
     clip-path="url(#clipPath88)"
     transform="translate(0,-31.5)" />
  <polygon
     points="570.52,568.45 476.8,568.45 476.8,561.05 570.52,561.05 "
     style="fill:#ffffff;stroke-width:1.07;stroke-linecap:butt"
     id="polygon36"
     clip-path="url(#clipPath87)"
     transform="translate(0,-31.5)" />
  <polygon
     points="570.52,561.05 476.8,561.05 476.8,546.26 570.52,546.26 "
     style="fill:#ffffff;stroke-width:1.07;stroke-linecap:butt"
     id="polygon37"
     clip-path="url(#clipPath86)"
     transform="translate(0,-31.5)" />
  <polygon
     points="570.52,546.26 476.8,546.26 476.8,538.86 570.52,538.86 "
     style="fill:#ffffff;stroke-width:1.07;stroke-linecap:butt"
     id="polygon38"
     clip-path="url(#clipPath85)"
     transform="translate(0,-31.5)" />
  <polygon
     points="570.52,538.86 476.8,538.86 476.8,405.72 570.52,405.72 "
     style="fill:#ffffff;stroke-width:1.07;stroke-linecap:butt"
     id="polygon39"
     clip-path="url(#clipPath84)"
     transform="translate(0,-31.5)" />
  <polygon
     points="570.52,405.72 476.8,405.72 476.8,398.33 570.52,398.33 "
     style="fill:#ffffff;stroke-width:1.07;stroke-linecap:butt"
     id="polygon40"
     clip-path="url(#clipPath83)"
     transform="translate(0,-31.5)" />
  <polygon
     points="570.52,398.33 476.8,398.33 476.8,339.15 570.52,339.15 "
     style="fill:#ffffff;stroke-width:1.07;stroke-linecap:butt"
     id="polygon41"
     clip-path="url(#clipPath82)"
     transform="translate(0,-31.5)" />
  <polygon
     points="570.52,339.15 476.8,339.15 476.8,309.57 570.52,309.57 "
     style="fill:#ffffff;stroke-width:1.07;stroke-linecap:butt"
     id="polygon42"
     clip-path="url(#clipPath81)"
     transform="translate(0,-31.5)" />
  <polygon
     points="570.52,309.57 476.8,309.57 476.8,228.21 570.52,228.21 "
     style="fill:#ffffff;stroke-width:1.07;stroke-linecap:butt"
     id="polygon43"
     clip-path="url(#clipPath80)"
     transform="translate(0,-31.5)" />
  <polygon
     points="570.52,228.21 476.8,228.21 476.8,206.02 570.52,206.02 "
     style="fill:#ffffff;stroke-width:1.07;stroke-linecap:butt"
     id="polygon44"
     clip-path="url(#clipPath79)"
     transform="translate(0,-31.5)" />
  <polygon
     points="570.52,206.02 476.8,206.02 476.8,176.43 570.52,176.43 "
     style="fill:#ffffff;stroke-width:1.07;stroke-linecap:butt"
     id="polygon45"
     clip-path="url(#clipPath78)"
     transform="translate(0,-31.5)" />
  <polygon
     points="570.52,176.43 476.8,176.43 476.8,87.67 570.52,87.67 "
     style="fill:#ffffff;stroke-width:1.07;stroke-linecap:butt"
     id="polygon46"
     clip-path="url(#clipPath77)"
     transform="translate(0,-31.5)" />
  <polygon
     points="570.52,87.67 476.8,87.67 476.8,50.69 570.52,50.69 "
     style="fill:#ffffff;stroke-width:1.07;stroke-linecap:butt"
     id="polygon47"
     clip-path="url(#clipPath76)"
     transform="translate(0,-31.5)" />
  <g
     id="g125"
     transform="translate(-9.1121493,-31.961733)">
    <rect
       style="font-variation-settings:normal;vector-effect:none;fill:#ffffff;fill-opacity:1;stroke:#000000;stroke-width:0.75;stroke-linecap:butt;stroke-linejoin:miter;stroke-miterlimit:4;stroke-dasharray:none;stroke-dashoffset:0;stroke-opacity:1;-inkscape-stroke:none"
       id="rect121"
       width="17.772242"
       height="11.393555"
       x="63.519672"
       y="588.93311"
       ry="3.051398" />
    <text
       x="55.080002"
       y="598.35999"
       text-anchor="middle"
       style="font-size:11.04px;font-family:Arial"
       textLength="14.04"
       lengthAdjust="spacingAndGlyphs"
       id="text47"
       transform="translate(16.817071,0.071688)">10</text>
  </g>
  <g
     id="g123"
     transform="translate(4.1437346,-53.590143)">
    <rect
       style="font-variation-settings:normal;vector-effect:none;fill:#ffffff;fill-opacity:1;stroke:#000000;stroke-width:0.75;stroke-linecap:butt;stroke-linejoin:miter;stroke-miterlimit:4;stroke-dasharray:none;stroke-dashoffset:0;stroke-opacity:1;-inkscape-stroke:none"
       id="rect121-0"
       width="17.772242"
       height="11.393555"
       x="28.875002"
       y="603.375"
       ry="3.051398" />
    <text
       x="55.080002"
       y="590.96002"
       text-anchor="middle"
       style="font-size:11.04px;font-family:Arial"
       textLength="7.02"
       lengthAdjust="spacingAndGlyphs"
       id="text48"
       transform="translate(-17.213157,21.878045)">9</text>
  </g>
  <text
     x="55.080002"
     y="579.85999"
     text-anchor="middle"
     style="font-size:11.04px;font-family:Arial"
     textLength="7.02"
     lengthAdjust="spacingAndGlyphs"
     id="text49"
     transform="translate(0,-31.5)">8</text>
  <g
     id="g124"
     transform="translate(-2.0620184,-75.894868)">
    <rect
       style="font-variation-settings:normal;vector-effect:none;fill:#ffffff;fill-opacity:1;stroke:#000000;stroke-width:0.75;stroke-linecap:butt;stroke-linejoin:miter;stroke-miterlimit:4;stroke-dasharray:none;stroke-dashoffset:0;stroke-opacity:1;-inkscape-stroke:none"
       id="rect121-0-1"
       width="17.772242"
       height="11.393555"
       x="48.375"
       y="603.375"
       ry="3.051398" />
    <text
       x="55.080002"
       y="568.77002"
       text-anchor="middle"
       style="font-size:11.04px;font-family:Arial"
       textLength="7.02"
       lengthAdjust="spacingAndGlyphs"
       id="text50"
       transform="translate(2.2836616,44.390775)">7</text>
  </g>
  <text
     x="55.080002"
     y="553.97998"
     text-anchor="middle"
     style="font-size:11.04px;font-family:Arial"
     textLength="7.02"
     lengthAdjust="spacingAndGlyphs"
     id="text51"
     transform="translate(0,-31.5)">6</text>
  <text
     x="55.080002"
     y="454.12"
     text-anchor="middle"
     style="font-size:11.04px;font-family:Arial"
     textLength="7.02"
     lengthAdjust="spacingAndGlyphs"
     id="text52"
     transform="translate(0,-31.5)">5</text>
  <text
     x="55.080002"
     y="346.87"
     text-anchor="middle"
     style="font-size:11.04px;font-family:Arial"
     textLength="7.02"
     lengthAdjust="spacingAndGlyphs"
     id="text54"
     transform="translate(0,-31.5)">3</text>
  <text
     x="55.080002"
     y="306.19"
     text-anchor="middle"
     style="font-size:11.04px;font-family:Arial"
     textLength="7.02"
     lengthAdjust="spacingAndGlyphs"
     id="text55"
     transform="translate(0,-31.5)">2</text>
  <text
     x="55.080002"
     y="165.66"
     text-anchor="middle"
     style="font-size:11.04px;font-family:Arial"
     textLength="7.02"
     lengthAdjust="spacingAndGlyphs"
     id="text56"
     transform="translate(0,-31.5)">1</text>
  <g
     id="g127"
     transform="translate(22.761858,-44.493456)">
    <rect
       style="font-variation-settings:normal;vector-effect:none;fill:#ffffff;fill-opacity:1;stroke:#000000;stroke-width:0.75;stroke-linecap:butt;stroke-linejoin:miter;stroke-miterlimit:4;stroke-dasharray:none;stroke-dashoffset:0;stroke-opacity:1;-inkscape-stroke:none"
       id="rect121-0-15"
       width="17.772242"
       height="11.393555"
       x="481.30948"
       y="601.18463"
       ry="3.051398" />
    <text
       x="523.65997"
       y="598.35999"
       text-anchor="middle"
       style="font-size:11.04px;font-family:Arial"
       textLength="14.04"
       lengthAdjust="spacingAndGlyphs"
       id="text57"
       transform="translate(-33.715186,12.604159)">15</text>
  </g>
  <g
     id="g128"
     transform="translate(12.135839,-51.236543)">
    <rect
       style="font-variation-settings:normal;vector-effect:none;fill:#ffffff;fill-opacity:1;stroke:#000000;stroke-width:0.75;stroke-linecap:butt;stroke-linejoin:miter;stroke-miterlimit:4;stroke-dasharray:none;stroke-dashoffset:0;stroke-opacity:1;-inkscape-stroke:none"
       id="rect121-0-7-5"
       width="17.772242"
       height="11.393555"
       x="512.72327"
       y="601.47876"
       ry="3.051398" />
    <text
       x="523.65997"
       y="590.96002"
       text-anchor="middle"
       style="font-size:11.04px;font-family:Arial"
       textLength="14.04"
       lengthAdjust="spacingAndGlyphs"
       id="text58"
       transform="translate(-2.531057,20.138748)">14</text>
  </g>
  <text
     x="523.65997"
     y="579.85999"
     text-anchor="middle"
     style="font-size:11.04px;font-family:Arial"
     textLength="14.04"
     lengthAdjust="spacingAndGlyphs"
     id="text59"
     transform="translate(0,-31.5)">13</text>
  <g
     id="g129"
     transform="translate(0.45521445,-73.761493)">
    <rect
       style="font-variation-settings:normal;vector-effect:none;fill:#ffffff;fill-opacity:1;stroke:#000000;stroke-width:0.75;stroke-linecap:butt;stroke-linejoin:miter;stroke-miterlimit:4;stroke-dasharray:none;stroke-dashoffset:0;stroke-opacity:1;-inkscape-stroke:none"
       id="rect121-0-7-3"
       width="17.772242"
       height="11.393555"
       x="514.89252"
       y="601.14185"
       ry="3.051398" />
    <text
       x="523.65997"
       y="568.77002"
       text-anchor="middle"
       style="font-size:11.04px;font-family:Arial"
       textLength="14.04"
       lengthAdjust="spacingAndGlyphs"
       id="text60"
       transform="translate(-0.38425731,42.324908)">12</text>
  </g>
  <text
     x="523.65997"
     y="557.66998"
     text-anchor="middle"
     style="font-size:11.04px;font-family:Arial"
     textLength="14.04"
     lengthAdjust="spacingAndGlyphs"
     id="text61"
     transform="translate(0,-31.5)">11</text>
  <g
     id="g130"
     transform="translate(21.877108,-98.277594)">
    <rect
       style="font-variation-settings:normal;vector-effect:none;fill:#ffffff;fill-opacity:1;stroke:#000000;stroke-width:0.75;stroke-linecap:butt;stroke-linejoin:miter;stroke-miterlimit:4;stroke-dasharray:none;stroke-dashoffset:0;stroke-opacity:1;-inkscape-stroke:none"
       id="rect121-0-7-6"
       width="17.772242"
       height="11.393555"
       x="493.57855"
       y="603.13818"
       ry="3.051398" />
    <text
       x="523.65997"
       y="546.58002"
       text-anchor="middle"
       style="font-size:11.04px;font-family:Arial"
       textLength="14.04"
       lengthAdjust="spacingAndGlyphs"
       id="text62"
       transform="translate(-21.531756,66.372525)">10</text>
  </g>
  <text
     x="523.65997"
     y="476.31"
     text-anchor="middle"
     style="font-size:11.04px;font-family:Arial"
     textLength="7.02"
     lengthAdjust="spacingAndGlyphs"
     id="text63"
     transform="translate(0,-31.5)">9</text>
  <text
     x="523.65997"
     y="372.76001"
     text-anchor="middle"
     style="font-size:11.04px;font-family:Arial"
     textLength="7.02"
     lengthAdjust="spacingAndGlyphs"
     id="text65"
     transform="translate(0,-31.5)">7</text>
  <text
     x="523.65997"
     y="328.38"
     text-anchor="middle"
     style="font-size:11.04px;font-family:Arial"
     textLength="7.02"
     lengthAdjust="spacingAndGlyphs"
     id="text66"
     transform="translate(0,-31.5)">6</text>
  <text
     x="523.65997"
     y="272.91"
     text-anchor="middle"
     style="font-size:11.04px;font-family:Arial"
     textLength="7.02"
     lengthAdjust="spacingAndGlyphs"
     id="text67"
     transform="translate(0,-31.5)">5</text>
  <text
     x="523.65997"
     y="221.13"
     text-anchor="middle"
     style="font-size:11.04px;font-family:Arial"
     textLength="7.02"
     lengthAdjust="spacingAndGlyphs"
     id="text68"
     transform="translate(0,-31.5)">4</text>
  <text
     x="523.65997"
     y="195.24001"
     text-anchor="middle"
     style="font-size:11.04px;font-family:Arial"
     textLength="7.02"
     lengthAdjust="spacingAndGlyphs"
     id="text69"
     transform="translate(0,-31.5)">3</text>
  <text
     x="523.65997"
     y="136.07001"
     text-anchor="middle"
     style="font-size:11.04px;font-family:Arial"
     textLength="7.02"
     lengthAdjust="spacingAndGlyphs"
     id="text70"
     transform="translate(0,-31.5)">2</text>
  <text
     x="523.65997"
     y="73.199997"
     text-anchor="middle"
     style="font-size:11.04px;font-family:Arial"
     textLength="7.02"
     lengthAdjust="spacingAndGlyphs"
     id="text71"
     transform="translate(0,-31.5)">1</text>
  <text
     xml:space="preserve"
     style="font-size:24px;line-height:1.25;font-family:sans-serif;letter-spacing:0px;word-spacing:0px;stroke-width:0.75"
     x="11.015646"
     y="601.67969"
     id="text75"><tspan
       sodipodi:role="line"
       id="tspan75"
       style="font-style:normal;font-variant:normal;font-weight:normal;font-stretch:normal;font-size:24px;font-family:'Proxima Nova';-inkscape-font-specification:'Proxima Nova';stroke-width:0.75"
       x="11.015646"
       y="601.67969">DPMUnc</tspan></text>
  <text
     xml:space="preserve"
     style="font-size:24px;line-height:1.25;font-family:sans-serif;letter-spacing:0px;word-spacing:0px;stroke-width:0.75"
     x="406.32446"
     y="600.4408"
     id="text76"><tspan
       sodipodi:role="line"
       id="tspan76"
       style="font-size:24px;stroke-width:0.75"
       x="406.32446"
       y="600.4408">Bhattacharyya</tspan></text>
  <g
     id="g126"
     transform="translate(-14.003806,-32.186059)">
    <rect
       style="font-variation-settings:normal;vector-effect:none;fill:#ffffff;fill-opacity:1;stroke:#000000;stroke-width:0.75;stroke-linecap:butt;stroke-linejoin:miter;stroke-miterlimit:4;stroke-dasharray:none;stroke-dashoffset:0;stroke-opacity:1;-inkscape-stroke:none"
       id="rect121-0-7-7"
       width="17.772242"
       height="11.393555"
       x="59.516441"
       y="352.78287"
       ry="3.051398" />
    <text
       x="55.080002"
       y="361.67001"
       text-anchor="middle"
       style="font-size:11.04px;font-family:Arial"
       textLength="7.02"
       lengthAdjust="spacingAndGlyphs"
       id="text53"
       transform="translate(13.127755,0.70941233)">4</text>
  </g>
  <g
     id="g131"
     transform="translate(0,-31.5)">
    <rect
       style="font-variation-settings:normal;vector-effect:none;fill:#ffffff;fill-opacity:1;stroke:#000000;stroke-width:0.75;stroke-linecap:butt;stroke-linejoin:miter;stroke-miterlimit:4;stroke-dasharray:none;stroke-dashoffset:0;stroke-opacity:1;-inkscape-stroke:none"
       id="rect121-0-7"
       width="17.772242"
       height="11.393555"
       x="514.79779"
       y="396.38226"
       ry="3.051398" />
    <text
       x="523.65997"
       y="406.04999"
       text-anchor="middle"
       style="font-size:11.04px;font-family:Arial"
       textLength="7.02"
       lengthAdjust="spacingAndGlyphs"
       id="text64">8</text>
  </g>
  <rect
     style="fill:#ffffff;fill-opacity:1;stroke:#000000;stroke-width:1.25;stroke-linecap:butt;stroke-linejoin:miter;stroke-miterlimit:4;stroke-dasharray:none;stroke-dashoffset:0;stroke-opacity:1"
     id="rect171-8-7-1"
     width="220.18086"
     height="147.31219"
     x="595.77692"
     y="368.26843"
     ry="5.7353697" />
  <text
     xml:space="preserve"
     style="font-size:20px;line-height:1.15;font-family:sans-serif;letter-spacing:0px;word-spacing:0px;stroke-width:0.75"
     x="604.34326"
     y="390.60913"
     id="text131"><tspan
       sodipodi:role="line"
       id="tspan131"
       style="font-style:normal;font-variant:normal;font-weight:bold;font-stretch:normal;font-size:20px;line-height:1.15;font-family:'Proxima Nova';-inkscape-font-specification:'Proxima Nova';stroke-width:0.75"
       x="604.34326"
       y="390.60913">9 Myositis</tspan><tspan
       sodipodi:role="line"
       style="font-style:normal;font-variant:normal;font-weight:normal;font-stretch:normal;font-size:20px;line-height:1.15;font-family:'Proxima Nova';-inkscape-font-specification:'Proxima Nova';stroke-width:0.75"
       x="604.34326"
       y="414.21381"
       id="tspan132">Early-MG</tspan><tspan
       sodipodi:role="line"
       style="font-style:normal;font-variant:normal;font-weight:bold;font-stretch:normal;font-size:20px;line-height:1.15;font-family:'Proxima Nova';-inkscape-font-specification:'Proxima Nova';stroke-width:0.75"
       x="604.34326"
       y="437.81851"
       id="tspan133">IgG+ NMO</tspan><tspan
       sodipodi:role="line"
       style="font-style:normal;font-variant:normal;font-weight:bold;font-stretch:normal;font-size:20px;line-height:1.15;font-family:'Proxima Nova';-inkscape-font-specification:'Proxima Nova';stroke-width:0.75"
       x="604.34326"
       y="461.42319"
       id="tspan134">MPO+ AAV</tspan><tspan
       sodipodi:role="line"
       style="font-style:normal;font-variant:normal;font-weight:bold;font-stretch:normal;font-size:20px;line-height:1.15;font-family:'Proxima Nova';-inkscape-font-specification:'Proxima Nova';stroke-width:0.75"
       x="604.34326"
       y="485.02789"
       id="tspan170">SjS</tspan><tspan
       sodipodi:role="line"
       style="font-style:normal;font-variant:normal;font-weight:bold;font-stretch:normal;font-size:20px;line-height:1.15;font-family:'Proxima Nova';-inkscape-font-specification:'Proxima Nova';stroke-width:0.75"
       x="604.34326"
       y="508.63257"
       id="tspan135">SSc</tspan><tspan
       sodipodi:role="line"
       style="font-style:normal;font-variant:normal;font-weight:normal;font-stretch:normal;font-size:20px;line-height:1.15;font-family:'Proxima Nova';-inkscape-font-specification:'Proxima Nova';stroke-width:0.75"
       x="604.34326"
       y="531.63257"
       id="tspan139" /></text>
  <rect
     style="fill:#ffffff;fill-opacity:1;stroke:#000000;stroke-width:1.25;stroke-linecap:butt;stroke-linejoin:miter;stroke-miterlimit:4;stroke-dasharray:none;stroke-dashoffset:0;stroke-opacity:1"
     id="rect171-8-7"
     width="220.82806"
     height="56.667374"
     x="595.62018"
     y="301.9906"
     ry="5.7353697" />
  <text
     xml:space="preserve"
     style="font-size:20px;line-height:1.25;font-family:sans-serif;letter-spacing:0px;word-spacing:0px;white-space:pre;stroke-width:0.75"
     x="601.94031"
     y="323.83307"
     id="text131-4"><tspan
       sodipodi:role="line"
       style="font-style:normal;font-variant:normal;font-weight:bold;font-stretch:normal;font-size:20px;font-family:'Proxima Nova';-inkscape-font-specification:'Proxima Nova';stroke-width:0.75"
       x="601.94031"
       y="323.83307"
       id="tspan160">HyperThy</tspan><tspan
       sodipodi:role="line"
       style="font-style:normal;font-variant:normal;font-weight:normal;font-stretch:normal;font-size:20px;font-family:'Proxima Nova';-inkscape-font-specification:'Proxima Nova';stroke-width:0.75"
       x="601.94031"
       y="349.43774"
       id="tspan162">Late-MG</tspan></text>
  <rect
     style="fill:#ffffff;fill-opacity:1;stroke:#000000;stroke-width:1.25;stroke-linecap:butt;stroke-linejoin:miter;stroke-miterlimit:4;stroke-dasharray:none;stroke-dashoffset:0;stroke-opacity:1"
     id="rect171-8"
     width="220.47627"
     height="26.643345"
     x="595.60822"
     y="268.28732"
     ry="5.7353697" />
  <text
     xml:space="preserve"
     style="font-size:20px;line-height:1.25;font-family:sans-serif;letter-spacing:0px;word-spacing:0px;white-space:pre;stroke-width:0.75"
     x="603.08032"
     y="287.39072"
     id="text131-4-7"><tspan
       sodipodi:role="line"
       style="font-style:normal;font-variant:normal;font-weight:normal;font-stretch:normal;font-size:20px;font-family:'Proxima Nova';-inkscape-font-specification:'Proxima Nova';stroke-width:0.75"
       x="603.08032"
       y="287.39072"
       id="tspan162-9">Autoimmune Thyroiditis</tspan></text>
  <rect
     style="opacity:1;fill:#ffffff;fill-opacity:1;stroke:#000000;stroke-width:1.25;stroke-linecap:butt;stroke-linejoin:miter;stroke-miterlimit:4;stroke-dasharray:none;stroke-dashoffset:0;stroke-opacity:1"
     id="rect171"
     width="221.16986"
     height="143.36925"
     x="595.60822"
     y="23.27496"
     ry="5.7353697" />
  <text
     xml:space="preserve"
     style="font-size:20px;line-height:0;font-family:sans-serif;letter-spacing:0px;word-spacing:0px;white-space:pre;stroke-width:0.75"
     x="603.04028"
     y="44.481613"
     id="text131-4-7-2"><tspan
       sodipodi:role="line"
       style="font-style:normal;font-variant:normal;font-weight:normal;font-stretch:normal;font-size:20px;line-height:1.15;font-family:'Proxima Nova';-inkscape-font-specification:'Proxima Nova';stroke-width:0.75"
       x="603.04028"
       y="44.481613"
       id="tspan162-9-1">Bio. med. for rheuma</tspan><tspan
       sodipodi:role="line"
       style="font-style:normal;font-variant:normal;font-weight:bold;font-stretch:normal;font-size:20px;line-height:1.15;font-family:'Proxima Nova';-inkscape-font-specification:'Proxima Nova';stroke-width:0.75"
       x="603.04028"
       y="67.481613"
       id="tspan163">ITP</tspan><tspan
       sodipodi:role="line"
       style="font-style:normal;font-variant:normal;font-weight:normal;font-stretch:normal;font-size:20px;line-height:1.15;font-family:'Proxima Nova';-inkscape-font-specification:'Proxima Nova';stroke-width:0.75"
       x="603.04028"
       y="90.481613"
       id="tspan164">Juvenile rheuma</tspan><tspan
       sodipodi:role="line"
       style="font-style:normal;font-variant:normal;font-weight:bold;font-stretch:normal;font-size:20px;line-height:1.15;font-family:'Proxima Nova';-inkscape-font-specification:'Proxima Nova';stroke-width:0.75"
       x="603.04028"
       y="113.48161"
       id="tspan166">PR3+ AAV</tspan><tspan
       sodipodi:role="line"
       style="font-style:normal;font-variant:normal;font-weight:normal;font-stretch:normal;font-size:20px;line-height:1.15;font-family:'Proxima Nova';-inkscape-font-specification:'Proxima Nova';stroke-width:0.75"
       x="603.04028"
       y="136.48161"
       id="tspan169">Palindromic rheumatism</tspan><tspan
       style="font-style:normal;font-variant:normal;font-weight:bold;font-stretch:normal;font-size:20px;line-height:1.15;font-family:'Proxima Nova';-inkscape-font-specification:'Proxima Nova';stroke-width:0.75"
       sodipodi:role="line"
       id="tspan172"
       x="603.04028"
       y="159.48161">GPA</tspan></text>
  <text
     xml:space="preserve"
     style="font-size:20px;line-height:1.25;font-family:sans-serif;letter-spacing:0px;word-spacing:0px;white-space:pre;stroke-width:0.75"
     x="716.604"
     y="323.83307"
     id="text131-4-4"><tspan
       sodipodi:role="line"
       style="font-style:normal;font-variant:normal;font-weight:bold;font-stretch:normal;font-size:20px;font-family:'Proxima Nova';-inkscape-font-specification:'Proxima Nova';stroke-width:0.75"
       x="716.604"
       y="323.83307"
       id="tspan161-6">HypoThy</tspan><tspan
       sodipodi:role="line"
       style="font-style:normal;font-variant:normal;font-weight:bold;font-stretch:normal;font-size:20px;font-family:'Proxima Nova';-inkscape-font-specification:'Proxima Nova';stroke-width:0.75"
       x="716.604"
       y="349.43774"
       id="tspan162-3">MG</tspan></text>
  <text
     xml:space="preserve"
     style="font-style:normal;font-variant:normal;font-weight:normal;font-stretch:normal;font-size:20px;line-height:1.15;font-family:sans-serif;font-variant-ligatures:normal;font-variant-position:normal;font-variant-caps:normal;font-variant-numeric:normal;font-variant-alternates:normal;font-variant-east-asian:normal;font-feature-settings:normal;font-variation-settings:normal;text-indent:0;text-align:start;text-decoration-line:none;text-decoration-style:solid;text-decoration-color:#000000;letter-spacing:0px;word-spacing:0px;text-transform:none;writing-mode:lr-tb;direction:ltr;text-orientation:mixed;dominant-baseline:auto;baseline-shift:baseline;white-space:pre;opacity:1;vector-effect:none;fill:#000000;fill-opacity:1;stroke-width:0.75;stroke-linecap:butt;stroke-linejoin:miter;stroke-miterlimit:4;stroke-dasharray:none;stroke-dashoffset:0;stroke-opacity:1;-inkscape-stroke:none;stop-color:#000000;stop-opacity:1"
     x="719.28699"
     y="391.23328"
     id="text147"><tspan
       sodipodi:role="line"
       id="tspan147"
       style="font-style:normal;font-variant:normal;font-weight:bold;font-stretch:normal;font-size:20px;line-height:1.15;font-family:'Proxima Nova';-inkscape-font-specification:'Proxima Nova';font-variant-ligatures:normal;font-variant-position:normal;font-variant-caps:normal;font-variant-numeric:normal;font-variant-alternates:normal;font-variant-east-asian:normal;font-feature-settings:normal;text-indent:0;text-align:start;text-decoration-line:none;text-decoration-style:solid;text-decoration-color:#000000;letter-spacing:0px;word-spacing:0px;text-transform:none;writing-mode:lr-tb;direction:ltr;text-orientation:mixed;dominant-baseline:auto;baseline-shift:baseline;white-space:pre;vector-effect:none;fill:#000000;fill-opacity:1;stroke-width:0.75;stroke-linecap:butt;stroke-linejoin:miter;stroke-miterlimit:4;stroke-dasharray:none;stroke-dashoffset:0;stroke-opacity:1;-inkscape-stroke:none;stop-color:#000000;stop-opacity:1"
       x="719.28699"
       y="391.23328">CR(E)ST</tspan><tspan
       sodipodi:role="line"
       style="font-style:normal;font-variant:normal;font-weight:bold;font-stretch:normal;font-size:20px;line-height:1.15;font-family:'Proxima Nova';-inkscape-font-specification:'Proxima Nova';font-variant-ligatures:normal;font-variant-position:normal;font-variant-caps:normal;font-variant-numeric:normal;font-variant-alternates:normal;font-variant-east-asian:normal;font-feature-settings:normal;text-indent:0;text-align:start;text-decoration-line:none;text-decoration-style:solid;text-decoration-color:#000000;letter-spacing:0px;word-spacing:0px;text-transform:none;writing-mode:lr-tb;direction:ltr;text-orientation:mixed;dominant-baseline:auto;baseline-shift:baseline;white-space:pre;vector-effect:none;fill:#000000;fill-opacity:1;stroke-width:0.75;stroke-linecap:butt;stroke-linejoin:miter;stroke-miterlimit:4;stroke-dasharray:none;stroke-dashoffset:0;stroke-opacity:1;-inkscape-stroke:none;stop-color:#000000;stop-opacity:1"
       x="719.28699"
       y="414.83795"
       id="tspan153">Felty</tspan><tspan
       sodipodi:role="line"
       style="font-style:normal;font-variant:normal;font-weight:bold;font-stretch:normal;font-size:20px;line-height:1.15;font-family:'Proxima Nova';-inkscape-font-specification:'Proxima Nova';font-variant-ligatures:normal;font-variant-position:normal;font-variant-caps:normal;font-variant-numeric:normal;font-variant-alternates:normal;font-variant-east-asian:normal;font-feature-settings:normal;text-indent:0;text-align:start;text-decoration-line:none;text-decoration-style:solid;text-decoration-color:#000000;letter-spacing:0px;word-spacing:0px;text-transform:none;writing-mode:lr-tb;direction:ltr;text-orientation:mixed;dominant-baseline:auto;baseline-shift:baseline;white-space:pre;vector-effect:none;fill:#000000;fill-opacity:1;stroke-width:0.75;stroke-linecap:butt;stroke-linejoin:miter;stroke-miterlimit:4;stroke-dasharray:none;stroke-dashoffset:0;stroke-opacity:1;-inkscape-stroke:none;stop-color:#000000;stop-opacity:1"
       x="719.28699"
       y="438.44266"
       id="tspan154">JIA</tspan><tspan
       sodipodi:role="line"
       style="font-style:normal;font-variant:normal;font-weight:bold;font-stretch:normal;font-size:20px;line-height:1.15;font-family:'Proxima Nova';-inkscape-font-specification:'Proxima Nova';font-variant-ligatures:normal;font-variant-position:normal;font-variant-caps:normal;font-variant-numeric:normal;font-variant-alternates:normal;font-variant-east-asian:normal;font-feature-settings:normal;text-indent:0;text-align:start;text-decoration-line:none;text-decoration-style:solid;text-decoration-color:#000000;letter-spacing:0px;word-spacing:0px;text-transform:none;writing-mode:lr-tb;direction:ltr;text-orientation:mixed;dominant-baseline:auto;baseline-shift:baseline;white-space:pre;vector-effect:none;fill:#000000;fill-opacity:1;stroke-width:0.75;stroke-linecap:butt;stroke-linejoin:miter;stroke-miterlimit:4;stroke-dasharray:none;stroke-dashoffset:0;stroke-opacity:1;-inkscape-stroke:none;stop-color:#000000;stop-opacity:1"
       x="719.28699"
       y="462.04733"
       id="tspan171">PBC</tspan><tspan
       sodipodi:role="line"
       style="font-style:normal;font-variant:normal;font-weight:bold;font-stretch:normal;font-size:20px;line-height:1.15;font-family:'Proxima Nova';-inkscape-font-specification:'Proxima Nova';font-variant-ligatures:normal;font-variant-position:normal;font-variant-caps:normal;font-variant-numeric:normal;font-variant-alternates:normal;font-variant-east-asian:normal;font-feature-settings:normal;text-indent:0;text-align:start;text-decoration-line:none;text-decoration-style:solid;text-decoration-color:#000000;letter-spacing:0px;word-spacing:0px;text-transform:none;writing-mode:lr-tb;direction:ltr;text-orientation:mixed;dominant-baseline:auto;baseline-shift:baseline;white-space:pre;vector-effect:none;fill:#000000;fill-opacity:1;stroke-width:0.75;stroke-linecap:butt;stroke-linejoin:miter;stroke-miterlimit:4;stroke-dasharray:none;stroke-dashoffset:0;stroke-opacity:1;-inkscape-stroke:none;stop-color:#000000;stop-opacity:1"
       x="719.28699"
       y="485.65204"
       id="tspan155" /><tspan
       sodipodi:role="line"
       style="font-style:normal;font-variant:normal;font-weight:normal;font-stretch:normal;font-size:20px;line-height:1.15;font-family:'Proxima Nova';-inkscape-font-specification:'Proxima Nova';font-variant-ligatures:normal;font-variant-position:normal;font-variant-caps:normal;font-variant-numeric:normal;font-variant-alternates:normal;font-variant-east-asian:normal;font-feature-settings:normal;text-indent:0;text-align:start;text-decoration-line:none;text-decoration-style:solid;text-decoration-color:#000000;letter-spacing:0px;word-spacing:0px;text-transform:none;writing-mode:lr-tb;direction:ltr;text-orientation:mixed;dominant-baseline:auto;baseline-shift:baseline;white-space:pre;vector-effect:none;fill:#000000;fill-opacity:1;stroke-width:0.75;stroke-linecap:butt;stroke-linejoin:miter;stroke-miterlimit:4;stroke-dasharray:none;stroke-dashoffset:0;stroke-opacity:1;-inkscape-stroke:none;stop-color:#000000;stop-opacity:1"
       x="719.28699"
       y="509.25671"
       id="tspan148" /><tspan
       sodipodi:role="line"
       style="font-style:normal;font-variant:normal;font-weight:normal;font-stretch:normal;font-size:20px;line-height:1.15;font-family:'Proxima Nova';-inkscape-font-specification:'Proxima Nova';font-variant-ligatures:normal;font-variant-position:normal;font-variant-caps:normal;font-variant-numeric:normal;font-variant-alternates:normal;font-variant-east-asian:normal;font-feature-settings:normal;text-indent:0;text-align:start;text-decoration-line:none;text-decoration-style:solid;text-decoration-color:#000000;letter-spacing:0px;word-spacing:0px;text-transform:none;writing-mode:lr-tb;direction:ltr;text-orientation:mixed;dominant-baseline:auto;baseline-shift:baseline;white-space:pre;vector-effect:none;fill:#000000;fill-opacity:1;stroke-width:0.75;stroke-linecap:butt;stroke-linejoin:miter;stroke-miterlimit:4;stroke-dasharray:none;stroke-dashoffset:0;stroke-opacity:1;-inkscape-stroke:none;stop-color:#000000;stop-opacity:1"
       x="719.28699"
       y="532.86139"
       id="tspan149" /><tspan
       sodipodi:role="line"
       style="font-style:normal;font-variant:normal;font-weight:normal;font-stretch:normal;font-size:20px;line-height:1.15;font-family:'Proxima Nova';-inkscape-font-specification:'Proxima Nova';font-variant-ligatures:normal;font-variant-position:normal;font-variant-caps:normal;font-variant-numeric:normal;font-variant-alternates:normal;font-variant-east-asian:normal;font-feature-settings:normal;text-indent:0;text-align:start;text-decoration-line:none;text-decoration-style:solid;text-decoration-color:#000000;letter-spacing:0px;word-spacing:0px;text-transform:none;writing-mode:lr-tb;direction:ltr;text-orientation:mixed;dominant-baseline:auto;baseline-shift:baseline;white-space:pre;vector-effect:none;fill:#000000;fill-opacity:1;stroke-width:0.75;stroke-linecap:butt;stroke-linejoin:miter;stroke-miterlimit:4;stroke-dasharray:none;stroke-dashoffset:0;stroke-opacity:1;-inkscape-stroke:none;stop-color:#000000;stop-opacity:1"
       x="719.28699"
       y="555.86139"
       id="tspan150" /></text>
</svg>
